<?xml version="1.0" encoding="utf-8"?>
<svg version="1.1" xmlns:xlink="http://www.w3.org/1999/xlink" width="21px" height="21px" xmlns="http://www.w3.org/2000/svg">
  <g transform="matrix(1 0 0 1 -1076 -343 )">
    <path d="M 20.740234375 0.2597656249999992  C 20.913411458333332 0.4329427083333305  21 0.6380208333333305  21 0.8749999999999992  L 21 20.125  C 21 20.361979166666664  20.913411458333332 20.567057291666664  20.740234375 20.740234375  C 20.567057291666668 20.913411458333336  20.361979166666668 21  20.125 21  L 0.875 21  C 0.6380208333333334 21  0.4329427083333333 20.913411458333336  0.259765625 20.740234375  C 0.08658854166666667 20.567057291666664  0 20.361979166666664  0 20.125  L 0 0.8749999999999992  C 0 0.6380208333333305  0.08658854166666667 0.4329427083333305  0.259765625 0.2597656249999992  C 0.4329427083333333 0.08658854166666563  0.6380208333333334 0  0.875 0  L 20.125 0  C 20.361979166666668 0  20.567057291666668 0.08658854166666563  20.740234375 0.2597656249999992  Z " fill-rule="nonzero" fill="#555555" stroke="none" transform="matrix(1 0 0 1 1076 343 )" />
  </g>
</svg>