<?xml version="1.0" encoding="utf-8"?>
<svg version="1.1" xmlns:xlink="http://www.w3.org/1999/xlink" width="246px" height="32px" xmlns="http://www.w3.org/2000/svg">
  <g transform="matrix(1 0 0 1 -875 -515 )">
    <path d="M 876 519  A 3 3 0 0 1 879 516 L 1117 516  A 3 3 0 0 1 1120 519 L 1120 543  A 3 3 0 0 1 1117 546 L 879 546  A 3 3 0 0 1 876 543 L 876 519  Z " fill-rule="nonzero" fill="#ffffff" stroke="none" />
    <path d="M 875.5 519  A 3.5 3.5 0 0 1 879 515.5 L 1117 515.5  A 3.5 3.5 0 0 1 1120.5 519 L 1120.5 543  A 3.5 3.5 0 0 1 1117 546.5 L 879 546.5  A 3.5 3.5 0 0 1 875.5 543 L 875.5 519  Z " stroke-width="1" stroke-dasharray="9,4" stroke="#d9d9d9" fill="none" stroke-dashoffset="0.5" />
  </g>
</svg>