<?xml version="1.0" encoding="utf-8"?>
<svg version="1.1" xmlns:xlink="http://www.w3.org/1999/xlink" width="20px" height="17px" xmlns="http://www.w3.org/2000/svg">
  <g transform="matrix(1 0 0 1 -775 -393 )">
    <path d="M 9.002403846153847 1.4585091420534462  C 9.154647435897434 1.6099390529770266  9.230769230769232 1.7892639474917944  9.230769230769232 1.9964838255977493  L 9.230769230769232 15.00351617440225  C 9.230769230769232 15.210736052508203  9.154647435897434 15.390060947022972  9.002403846153847 15.541490857946554  C 8.850160256410257 15.692920768870136  8.669871794871796 15.768635724331926  8.461538461538462 15.768635724331926  C 8.25320512820513 15.768635724331926  8.072916666666668 15.692920768870136  7.920673076923077 15.541490857946554  L 3.918269230769231 11.560478199718705  L 0.7692307692307693 11.560478199718705  C 0.560897435897436 11.560478199718705  0.3806089743589744 11.484763244256914  0.2283653846153846 11.333333333333334  C 0.07612179487179487 11.18190342240975  0 11.002578527894983  0 10.79535864978903  L 0 6.20464135021097  C 0 5.997421472105016  0.07612179487179487 5.818096577590246  0.2283653846153846 5.666666666666667  C 0.3806089743589744 5.515236755743083  0.560897435897436 5.439521800281295  0.7692307692307693 5.439521800281295  L 3.918269230769231 5.439521800281295  L 7.920673076923077 1.4585091420534462  C 8.072916666666668 1.307079231129864  8.25320512820513 1.2313642756680738  8.461538461538462 1.2313642756680738  C 8.669871794871796 1.2313642756680738  8.850160256410257 1.307079231129864  9.002403846153847 1.4585091420534462  Z M 13.335336538461537 6.80239099859353  C 13.675881410256412 7.328410689170183  13.846153846153847 7.894280356305671  13.846153846153847 8.5  C 13.846153846153847 9.105719643694327  13.675881410256412 9.669596812001876  13.335336538461537 10.191631504922645  C 12.994791666666668 10.71366619784341  12.544070512820513 11.08626347866854  11.983173076923077 11.309423347398031  C 11.903044871794874 11.349273323956867  11.802884615384617 11.369198312236286  11.682692307692308 11.369198312236286  C 11.474358974358976 11.369198312236286  11.294070512820513 11.295475855602437  11.141826923076923 11.148030942334739  C 10.989583333333336 11.000586029067039  10.913461538461537 10.819268635724331  10.913461538461537 10.60407876230661  C 10.913461538461537 10.436708860759493  10.961538461538463 10.29524144397562  11.057692307692308 10.179676511954993  C 11.153846153846153 10.064111579934364  11.270032051282053 9.964486638537272  11.40625 9.880801687763714  C 11.542467948717952 9.797116736990155  11.678685897435898 9.705461790904828  11.814903846153847 9.605836849507737  C 11.951121794871796 9.506211908110641  12.067307692307692 9.362751992498827  12.163461538461537 9.175457102672292  C 12.259615384615385 8.988162212845756  12.307692307692308 8.763009845288325  12.307692307692308 8.5  C 12.307692307692308 8.236990154711675  12.259615384615385 8.011837787154242  12.163461538461537 7.8245428973277065  C 12.067307692307692 7.637248007501171  11.951121794871796 7.493788091889357  11.814903846153847 7.394163150492265  C 11.678685897435898 7.294538209095172  11.542467948717952 7.202883263009846  11.40625 7.119198312236287  C 11.270032051282053 7.035513361462728  11.153846153846153 6.935888420065634  11.057692307692308 6.820323488045007  C 10.961538461538463 6.704758556024378  10.913461538461537 6.563291139240506  10.913461538461537 6.39592123769339  C 10.913461538461537 6.180731364275667  10.989583333333336 5.999413970932958  11.141826923076923 5.8519690576652605  C 11.294070512820513 5.7045241443975625  11.474358974358976 5.630801687763713  11.682692307692308 5.630801687763713  C 11.802884615384617 5.630801687763713  11.903044871794874 5.650726676043131  11.983173076923077 5.690576652601969  C 12.544070512820513 5.905766526019692  12.994791666666668 6.276371308016879  13.335336538461537 6.80239099859353  Z M 15.901442307692308 5.122714486638537  C 16.58253205128205 6.154828879512423  16.923076923076923 7.280590717299578  16.923076923076923 8.5  C 16.923076923076923 9.719409282700422  16.58253205128205 10.845171120487574  15.901442307692308 11.87728551336146  C 15.220352564102566 12.909399906235349  14.318910256410257 13.66057196436943  13.197115384615385 14.130801687763714  C 13.09294871794872 14.170651664322548  12.992788461538463 14.190576652601969  12.896634615384615 14.190576652601969  C 12.680288461538463 14.190576652601969  12.495993589743591 14.114861697140178  12.34375 13.963431786216596  C 12.191506410256412 13.812001875293014  12.115384615384617 13.632676980778246  12.115384615384615 13.425457102672292  C 12.115384615384617 13.114627285513361  12.271634615384617 12.879512423816221  12.584134615384615 12.720112517580873  C 13.032852564102566 12.488982653539615  13.337339743589745 12.31364275668073  13.497596153846153 12.19409282700422  C 14.090544871794874 11.763713080168776  14.553285256410257 11.22374589779653  14.885817307692308 10.574191279887481  C 15.21834935897436 9.924636661978433  15.384615384615385 9.233239568682606  15.384615384615385 8.5  C 15.384615384615385 7.766760431317392  15.21834935897436 7.075363338021565  14.885817307692308 6.425808720112517  C 14.553285256410257 5.776254102203469  14.090544871794874 5.236286919831224  13.497596153846153 4.805907172995781  C 13.337339743589745 4.68635724331927  13.032852564102566 4.511017346460384  12.584134615384615 4.279887482419127  C 12.271634615384617 4.120487576183777  12.115384615384617 3.885372714486639  12.115384615384615 3.5745428973277065  C 12.115384615384617 3.3673230192217516  12.191506410256412 3.187998124706984  12.34375 3.036568213783404  C 12.495993589743591 2.885138302859821  12.676282051282053 2.809423347398031  12.884615384615385 2.809423347398031  C 12.988782051282053 2.809423347398031  13.09294871794872 2.829348335677447  13.197115384615385 2.869198312236288  C 14.318910256410257 3.3394280356305663  15.220352564102566 4.090600093764648  15.901442307692308 5.122714486638537  Z M 18.473557692307693 3.4490154711673697  C 19.491185897435898 4.983239568682606  20 6.666901078293481  20 8.5  C 20 10.333098921706515  19.491185897435898 12.01676043131739  18.473557692307693 13.55098452883263  C 17.45592948717949 15.085208626347868  16.10176282051282 16.214955461790904  14.411057692307692 16.940225035161742  C 14.306891025641026 16.98007501172058  14.20272435897436 17  14.098557692307692 17  C 13.89022435897436 17  13.709935897435898 16.92428504453821  13.557692307692308 16.772855133614627  C 13.40544871794872 16.621425222691045  13.329326923076923 16.442100328176277  13.329326923076923 16.23488045007032  C 13.329326923076923 15.947960618846693  13.485576923076923 15.712845757149553  13.798076923076923 15.529535864978904  C 13.854166666666668 15.497655883731833  13.944310897435898 15.455813408345055  14.068509615384615 15.404008438818565  C 14.192708333333336 15.352203469292078  14.282852564102566 15.310360993905299  14.338942307692308 15.278481012658228  C 14.707532051282053 15.079231129864041  15.036057692307692 14.87599624941397  15.324519230769232 14.668776371308017  C 16.310096153846153 13.943506797937177  17.079326923076923 13.03891233005157  17.632211538461537 11.954992967651195  C 18.185096153846153 10.87107360525082  18.461538461538463 9.719409282700422  18.461538461538463 8.5  C 18.461538461538463 7.280590717299578  18.185096153846153 6.12892639474918  17.632211538461537 5.0450070323488045  C 17.079326923076923 3.961087669948429  16.310096153846153 3.0564932020628213  15.324519230769232 2.331223628691983  C 15.036057692307692 2.124003750586028  14.707532051282053 1.920768870135957  14.338942307692308 1.721518987341772  C 14.282852564102566 1.6896390060947009  14.192708333333336 1.6477965307079216  14.068509615384615 1.5959915611814348  C 13.944310897435898 1.5441865916549444  13.854166666666668 1.5023441162681652  13.798076923076923 1.470464135021098  C 13.485576923076923 1.2871542428504426  13.329326923076923 1.0520393811533042  13.329326923076923 0.7651195499296772  C 13.329326923076923 0.5578996718237205  13.40544871794872 0.37857477730895284  13.557692307692308 0.22714486638537246  C 13.709935897435898 0.07571495546179019  13.89022435897436 0  14.098557692307692 0  C 14.20272435897436 0  14.306891025641026 0.019924988279417577  14.411057692307692 0.059774964838256506  C 16.10176282051282 0.7850445382090929  17.45592948717949 1.9147913736521311  18.473557692307693 3.4490154711673697  Z " fill-rule="nonzero" fill="#7f7f7f" stroke="none" transform="matrix(1 0 0 1 775 393 )" />
  </g>
</svg>