<?xml version="1.0" encoding="utf-8"?>
<svg version="1.1" xmlns:xlink="http://www.w3.org/1999/xlink" width="11px" height="11px" xmlns="http://www.w3.org/2000/svg">
  <g transform="matrix(1 0 0 1 -331 -174 )">
    <path d="M 10.7529296875 6.484700520833334  C 10.798285590277779 6.530056423611112  10.820963541666668 6.583767361111112  10.820963541666668 6.645833333333334  C 10.820963541666668 6.669704861111112  10.81857638888889 6.6864149305555545  10.813802083333332 6.695963541666666  C 10.508246527777779 7.9754774305555545  9.868489583333332 9.0126953125  8.89453125 9.8076171875  C 7.920572916666667 10.6025390625  6.77951388888889 11  5.471354166666666 11  C 4.774305555555556 11  4.099934895833334 10.868706597222223  3.4482421875 10.606119791666668  C 2.7965494791666665 10.34353298611111  2.215277777777778 9.96875  1.7044270833333333 9.481770833333332  L 0.7805989583333334 10.405598958333332  C 0.6898871527777779 10.49631076388889  0.5824652777777779 10.541666666666668  0.4583333333333333 10.541666666666668  C 0.33420138888888895 10.541666666666668  0.2267795138888889 10.49631076388889  0.13606770833333331 10.405598958333332  C 0.045355902777777776 10.314887152777777  0 10.207465277777777  0 10.083333333333332  L 0 6.875  C 0 6.7508680555555545  0.045355902777777776 6.6434461805555545  0.13606770833333331 6.552734375  C 0.2267795138888889 6.462022569444443  0.33420138888888895 6.416666666666666  0.4583333333333333 6.416666666666666  L 3.6666666666666665 6.416666666666666  C 3.7907986111111116 6.416666666666666  3.8982204861111116 6.462022569444443  3.9889322916666665 6.552734375  C 4.079644097222223 6.6434461805555545  4.125 6.7508680555555545  4.125 6.875  C 4.125 6.999131944444443  4.079644097222223 7.106553819444443  3.9889322916666665 7.197265625  L 3.0078125 8.178385416666666  C 3.346788194444445 8.493489583333332  3.7311197916666665 8.736979166666668  4.160807291666666 8.908854166666668  C 4.590494791666666 9.080729166666668  5.036892361111112 9.166666666666668  5.5 9.166666666666668  C 6.139756944444445 9.166666666666668  6.73654513888889 9.01150173611111  7.290364583333333 8.701171875  C 7.844184027777779 8.390842013888888  8.288194444444446 7.963541666666666  8.622395833333332 7.419270833333334  C 8.674913194444446 7.338107638888888  8.801432291666668 7.058810763888888  9.001953125 6.581380208333334  C 9.040147569444446 6.4715711805555545  9.111762152777779 6.416666666666666  9.216796875 6.416666666666666  L 10.591796875 6.416666666666666  C 10.653862847222223 6.416666666666666  10.707573784722223 6.4393446180555545  10.7529296875 6.484700520833334  Z M 10.863932291666668 0.5944010416666671  C 10.954644097222221 0.6851128472222215  11 0.7925347222222215  11 0.9166666666666671  L 11 4.125  C 11 4.249131944444445  10.954644097222221 4.356553819444445  10.863932291666668 4.447265625  C 10.773220486111112 4.537977430555555  10.665798611111112 4.583333333333333  10.541666666666668 4.583333333333333  L 7.333333333333333 4.583333333333333  C 7.20920138888889 4.583333333333333  7.10177951388889 4.537977430555555  7.011067708333333 4.447265625  C 6.920355902777779 4.356553819444445  6.875000000000001 4.249131944444445  6.875 4.125  C 6.875000000000001 4.0008680555555545  6.920355902777779 3.8934461805555545  7.011067708333333 3.802734375  L 7.999348958333333 2.814453125  C 7.2927517361111125 2.1603732638888875  6.459635416666667 1.833333333333333  5.5 1.833333333333333  C 4.860243055555556 1.833333333333333  4.263454861111112 1.9884982638888875  3.7096354166666665 2.298828125  C 3.1558159722222228 2.6091579861111103  2.711805555555556 3.036458333333333  2.377604166666667 3.580729166666667  C 2.325086805555556 3.6618923611111103  2.198567708333333 3.9411892361111103  1.998046875 4.418619791666667  C 1.9598524305555558 4.528428819444445  1.8882378472222225 4.583333333333333  1.783203125 4.583333333333333  L 0.3580729166666667 4.583333333333333  C 0.2960069444444444 4.583333333333333  0.24229600694444448 4.560655381944445  0.19694010416666666 4.515299479166667  C 0.1515842013888889 4.469943576388888  0.12890625 4.416232638888888  0.12890625 4.354166666666667  L 0.12890625 4.304036458333333  C 0.43923611111111116 3.024522569444444  1.0837673611111112 1.9873046875  2.0625 1.1923828125  C 3.0412326388888893 0.3974609375  4.187065972222223 0  5.5 0  C 6.197048611111112 0  6.875 0.13248697916666707  7.533854166666667 0.3974609375  C 8.192708333333332 0.6624348958333329  8.77756076388889 1.0360243055555545  9.288411458333332 1.518229166666667  L 10.219401041666668 0.5944010416666671  C 10.310112847222223 0.5036892361111102  10.417534722222223 0.4583333333333329  10.541666666666668 0.4583333333333329  C 10.665798611111112 0.4583333333333329  10.773220486111112 0.5036892361111102  10.863932291666668 0.5944010416666671  Z " fill-rule="nonzero" fill="#ffffff" stroke="none" transform="matrix(1 0 0 1 331 174 )" />
  </g>
</svg>