<?xml version="1.0" encoding="utf-8"?>
<svg version="1.1" xmlns:xlink="http://www.w3.org/1999/xlink" width="44px" height="44px" xmlns="http://www.w3.org/2000/svg">
  <g transform="matrix(1 0 0 1 -121 -3551 )">
    <path d="M 141.33825506059245 3551.5643147118303  C 141.89107115425938 3551.5214591030317  142.4454005049437 3551.5  143 3551.5  C 154.87412212136206 3551.5  164.5 3561.1258778786378  164.5 3573  C 164.5 3584.8741221213622  154.87412212136206 3594.5  143 3594.5  C 131.12587787863794 3594.5  121.5 3584.8741221213622  121.5 3573  C 121.5 3569.3927689929765  122.4075585077494 3565.846279923491  124.13548845254999 3562.68591936915  L 142.75 3573.433012701892  A 0.5 0.5 0 0 0 143.49747076071938 3572.9497720971044 L 141.33825506053725 3551.5643147118344  Z " fill-rule="nonzero" fill="#1890ff" stroke="none" />
    <path d="M 141.33825506059245 3551.5643147118303  C 141.89107115425938 3551.5214591030317  142.4454005049437 3551.5  143 3551.5  C 154.87412212136206 3551.5  164.5 3561.1258778786378  164.5 3573  C 164.5 3584.8741221213622  154.87412212136206 3594.5  143 3594.5  C 131.12587787863794 3594.5  121.5 3584.8741221213622  121.5 3573  C 121.5 3569.3927689929765  122.4075585077494 3565.846279923491  124.13548845254999 3562.68591936915  L 142.75 3573.433012701892  A 0.5 0.5 0 0 0 143.49747076071938 3572.9497720971044 L 141.33825506053725 3551.5643147118344  Z " stroke-width="1" stroke="#ffffff" fill="none" />
  </g>
</svg>