<?xml version="1.0" encoding="utf-8"?>
<svg version="1.1" xmlns:xlink="http://www.w3.org/1999/xlink" width="246px" height="32px" xmlns="http://www.w3.org/2000/svg">
  <g transform="matrix(1 0 0 1 -760 -854 )">
    <path d="M 761 858  A 3 3 0 0 1 764 855 L 1002 855  A 3 3 0 0 1 1005 858 L 1005 882  A 3 3 0 0 1 1002 885 L 764 885  A 3 3 0 0 1 761 882 L 761 858  Z " fill-rule="nonzero" fill="#ffffff" stroke="none" />
    <path d="M 760.5 858  A 3.5 3.5 0 0 1 764 854.5 L 1002 854.5  A 3.5 3.5 0 0 1 1005.5 858 L 1005.5 882  A 3.5 3.5 0 0 1 1002 885.5 L 764 885.5  A 3.5 3.5 0 0 1 760.5 882 L 760.5 858  Z " stroke-width="1" stroke-dasharray="9,4" stroke="#d9d9d9" fill="none" stroke-dashoffset="0.5" />
  </g>
</svg>