<?xml version="1.0" encoding="utf-8"?>
<svg version="1.1" xmlns:xlink="http://www.w3.org/1999/xlink" width="641px" height="1030px" xmlns="http://www.w3.org/2000/svg">
  <g transform="matrix(1 0 0 1 -1279 0 )">
    <path d="M 640.5 0  L 0.5 0  L 0.5 1024.1116389548692  C 0 1026.8491211401424  0.4992907801420188 1029  1.1347517730495156 1029.5  L 638.8652482269504 1029.5  C 639.5007092198584 1029  640 1026.8491211401424  640.5 1024.1116389548692  L 640.5 0  Z " fill-rule="nonzero" fill="#ffffff" stroke="none" transform="matrix(1 0 0 1 1279 0 )" />
    <path d="M 0.5 0  L 0.5 1024.1116389548692  C 0 1026.8491211401424  0.4992907801420188 1029  1.1347517730495156 1029.5  L 638.8652482269504 1029.5  C 639.5007092198584 1029  640 1026.8491211401424  640.5 1024.1116389548692  L 640.5 0  " stroke-width="1" stroke="#e9e9e9" fill="none" transform="matrix(1 0 0 1 1279 0 )" />
  </g>
</svg>