<?xml version="1.0" encoding="utf-8"?>
<svg version="1.1" xmlns:xlink="http://www.w3.org/1999/xlink" width="24px" height="24px" xmlns="http://www.w3.org/2000/svg">
  <g transform="matrix(1 0 0 1 -154 -3459 )">
    <path d="M 166 3459  C 172.72 3459  178 3464.28  178 3471  C 178 3477.72  172.72 3483  166 3483  C 159.28 3483  154 3477.72  154 3471  C 154 3464.28  159.28 3459  166 3459  Z " fill-rule="nonzero" fill="#ffffff" stroke="none" />
    <path d="M 166 3459.5  C 172.44 3459.5  177.5 3464.56  177.5 3471  C 177.5 3477.44  172.44 3482.5  166 3482.5  C 159.56 3482.5  154.5 3477.44  154.5 3471  C 154.5 3464.56  159.56 3459.5  166 3459.5  Z " stroke-width="1" stroke="#1890ff" fill="none" />
  </g>
</svg>