<?xml version="1.0" encoding="utf-8"?>
<svg version="1.1" xmlns:xlink="http://www.w3.org/1999/xlink" width="11px" height="16px" xmlns="http://www.w3.org/2000/svg">
  <g transform="matrix(1 0 0 1 -981 -642 )">
    <path d="M 10.81857638888889 6.336538461538462  C 10.939525462962964 6.458333333333332  11 6.6025641025641  11 6.76923076923077  L 11 8  C 11 9.416666666666666  10.530526620370372 10.649038461538462  9.59157986111111 11.697115384615385  C 8.652633101851853 12.745192307692307  7.492476851851852 13.346153846153847  6.111111111111112 13.5  L 6.111111111111112 14.76923076923077  L 8.555555555555555 14.76923076923077  C 8.721064814814815 14.76923076923077  8.864293981481481 14.830128205128204  8.985243055555555 14.951923076923077  C 9.106192129629632 15.073717948717949  9.166666666666668 15.217948717948719  9.166666666666668 15.384615384615385  C 9.166666666666668 15.551282051282051  9.106192129629632 15.69551282051282  8.985243055555555 15.817307692307692  C 8.864293981481481 15.939102564102566  8.721064814814815 16  8.555555555555555 16  L 2.444444444444444 16  C 2.278935185185185 16  2.1357060185185186 15.939102564102566  2.014756944444444 15.817307692307692  C 1.8938078703703702 15.69551282051282  1.8333333333333333 15.551282051282051  1.8333333333333333 15.384615384615385  C 1.8333333333333333 15.217948717948719  1.8938078703703702 15.073717948717949  2.014756944444444 14.951923076923077  C 2.1357060185185186 14.830128205128204  2.278935185185185 14.76923076923077  2.444444444444444 14.76923076923077  L 4.888888888888888 14.76923076923077  L 4.888888888888888 13.5  C 3.5075231481481484 13.346153846153847  2.3473668981481484 12.745192307692307  1.4084201388888888 11.697115384615385  C 0.4694733796296296 10.649038461538462  0 9.416666666666666  0 8  L 0 6.76923076923077  C 0 6.6025641025641  0.060474537037037035 6.458333333333332  0.1814236111111111 6.336538461538462  C 0.3023726851851852 6.214743589743589  0.4456018518518519 6.153846153846153  0.611111111111111 6.153846153846153  C 0.7766203703703705 6.153846153846153  0.9198495370370371 6.214743589743589  1.0407986111111112 6.336538461538462  C 1.1617476851851851 6.458333333333332  1.222222222222222 6.6025641025641  1.222222222222222 6.76923076923077  L 1.222222222222222 8  C 1.222222222222222 9.185897435897434  1.640769675925926 10.200320512820511  2.477864583333333 11.04326923076923  C 3.314959490740741 11.886217948717947  4.322337962962963 12.307692307692307  5.5 12.307692307692307  C 6.677662037037037 12.307692307692307  7.6850405092592595 11.886217948717947  8.522135416666668 11.04326923076923  C 9.359230324074074 10.200320512820511  9.777777777777777 9.185897435897434  9.777777777777777 8  L 9.777777777777777 6.76923076923077  C 9.777777777777777 6.6025641025641  9.838252314814817 6.458333333333332  9.95920138888889 6.336538461538462  C 10.080150462962964 6.214743589743589  10.223379629629632 6.153846153846153  10.38888888888889 6.153846153846153  C 10.55439814814815 6.153846153846153  10.697627314814817 6.214743589743589  10.81857638888889 6.336538461538462  Z M 7.657986111111112 0.9038461538461533  C 8.25636574074074 1.5064102564102555  8.555555555555555 2.23076923076923  8.555555555555555 3.0769230769230766  L 8.555555555555555 8  C 8.555555555555555 8.846153846153847  8.25636574074074 9.57051282051282  7.657986111111112 10.173076923076923  C 7.059606481481482 10.775641025641026  6.340277777777777 11.076923076923077  5.5 11.076923076923077  C 4.659722222222223 11.076923076923077  3.9403935185185195 10.775641025641026  3.3420138888888884 10.173076923076923  C 2.7436342592592595 9.57051282051282  2.444444444444444 8.846153846153847  2.444444444444444 8  L 2.444444444444444 3.0769230769230766  C 2.444444444444444 2.23076923076923  2.7436342592592595 1.5064102564102555  3.3420138888888884 0.9038461538461533  C 3.9403935185185195 0.3012820512820529  4.659722222222223 0  5.5 0  C 6.340277777777777 0  7.059606481481482 0.3012820512820529  7.657986111111112 0.9038461538461533  Z " fill-rule="nonzero" fill="#ffffff" stroke="none" transform="matrix(1 0 0 1 981 642 )" />
  </g>
</svg>