<?xml version="1.0" encoding="utf-8"?>
<svg version="1.1" xmlns:xlink="http://www.w3.org/1999/xlink" width="21px" height="23px" xmlns="http://www.w3.org/2000/svg">
  <g transform="matrix(1 0 0 1 -1393 -362 )">
    <path d="M 20.6171875 0.38701923076923195  C 20.872395833333332 0.645032051282049  21 0.9583333333333325  21 1.3269230769230773  L 21 16.80769230769231  C 21 17.268429487179485  20.845052083333332 17.678485576923077  20.53515625 18.037860576923077  C 20.225260416666668 18.397235576923077  19.833333333333336 18.67598157051282  19.359375 18.87409855769231  C 18.885416666666668 19.072215544871796  18.413736979166668 19.21965144230769  17.9443359375 19.31640625  C 17.474934895833336 19.41316105769231  17.03515625 19.46153846153846  16.625 19.46153846153846  C 16.21484375 19.46153846153846  15.775065104166668 19.41316105769231  15.3056640625 19.31640625  C 14.836263020833334 19.21965144230769  14.364583333333334 19.072215544871796  13.890625 18.87409855769231  C 13.416666666666668 18.67598157051282  13.024739583333336 18.397235576923077  12.71484375 18.037860576923077  C 12.404947916666668 17.678485576923077  12.25 17.268429487179485  12.25 16.80769230769231  C 12.25 16.346955128205128  12.404947916666668 15.936899038461538  12.71484375 15.577524038461538  C 13.024739583333336 15.218149038461538  13.416666666666668 14.939403044871794  13.890625 14.74128605769231  C 14.364583333333334 14.54316907051282  14.836263020833334 14.395733173076923  15.3056640625 14.298978365384617  C 15.775065104166668 14.20222355769231  16.21484375 14.153846153846155  16.625 14.153846153846155  C 17.58203125 14.153846153846155  18.45703125 14.333533653846155  19.25 14.692908653846155  L 19.25 7.270432692307693  L 8.75 10.546274038461538  L 8.75 20.346153846153847  C 8.75 20.806891025641026  8.595052083333334 21.216947115384617  8.28515625 21.576322115384617  C 7.975260416666667 21.935697115384617  7.583333333333334 22.21444310897436  7.109375 22.412560096153847  C 6.635416666666668 22.610677083333332  6.163736979166668 22.758112980769234  5.6943359375 22.85486778846154  C 5.224934895833334 22.951622596153847  4.78515625 23  4.375 23  C 3.96484375 23  3.525065104166667 22.951622596153847  3.0556640625 22.85486778846154  C 2.5862630208333335 22.758112980769234  2.1145833333333335 22.610677083333332  1.640625 22.412560096153847  C 1.1666666666666667 22.21444310897436  0.7747395833333334 21.935697115384617  0.46484375 21.576322115384617  C 0.15494791666666666 21.216947115384617  0 20.806891025641026  0 20.346153846153847  C 0 19.885416666666668  0.15494791666666666 19.475360576923077  0.46484375 19.115985576923077  C 0.7747395833333334 18.756610576923077  1.1666666666666667 18.477864583333332  1.640625 18.279747596153847  C 2.1145833333333335 18.08163060897436  2.5862630208333335 17.93419471153846  3.0556640625 17.837439903846153  C 3.525065104166667 17.740685096153847  3.96484375 17.69230769230769  4.375 17.69230769230769  C 5.33203125 17.69230769230769  6.20703125 17.87199519230769  7 18.23137019230769  L 7 4.865384615384616  C 7 4.579727564102562  7.086588541666668 4.319411057692307  7.259765625 4.084435096153845  C 7.432942708333335 3.849459134615384  7.65625 3.685897435897433  7.9296875 3.59375  L 19.3046875 0.05528846153846134  C 19.4140625 0.018429487179487114  19.541666666666668 0  19.6875 0  C 20.052083333333336 0  20.361979166666668 0.1290064102564098  20.6171875 0.38701923076923195  Z " fill-rule="nonzero" fill="#797979" stroke="none" transform="matrix(1 0 0 1 1393 362 )" />
  </g>
</svg>