<?xml version="1.0" encoding="utf-8"?>
<svg version="1.1" xmlns:xlink="http://www.w3.org/1999/xlink" width="44px" height="44px" xmlns="http://www.w3.org/2000/svg">
  <g transform="matrix(1 0 0 1 -121 -3551 )">
    <path d="M 143 3551  C 155.32 3551  165 3560.68  165 3573  C 165 3585.32  155.32 3595  143 3595  C 130.68 3595  121 3585.32  121 3573  C 121 3560.68  130.68 3551  143 3551  Z " fill-rule="nonzero" fill="#e9e9e9" stroke="none" />
    <path d="M 143 3551.5  C 155.04 3551.5  164.5 3560.96  164.5 3573  C 164.5 3585.04  155.04 3594.5  143 3594.5  C 130.96 3594.5  121.5 3585.04  121.5 3573  C 121.5 3560.96  130.96 3551.5  143 3551.5  Z " stroke-width="1" stroke="#ffffff" fill="none" />
  </g>
</svg>