<?xml version="1.0" encoding="utf-8"?>
<svg version="1.1" xmlns:xlink="http://www.w3.org/1999/xlink" width="24px" height="24px" xmlns="http://www.w3.org/2000/svg">
  <g transform="matrix(1 0 0 1 -411 -3460 )">
    <path d="M 423 3460  C 429.72 3460  435 3465.28  435 3472  C 435 3478.72  429.72 3484  423 3484  C 416.28 3484  411 3478.72  411 3472  C 411 3465.28  416.28 3460  423 3460  Z " fill-rule="nonzero" fill="#ffffff" stroke="none" />
    <path d="M 423 3460.5  C 429.44 3460.5  434.5 3465.56  434.5 3472  C 434.5 3478.44  429.44 3483.5  423 3483.5  C 416.56 3483.5  411.5 3478.44  411.5 3472  C 411.5 3465.56  416.56 3460.5  423 3460.5  Z " stroke-width="1" stroke="#cccccc" fill="none" />
  </g>
</svg>