<?xml version="1.0" encoding="utf-8"?>
<svg version="1.1" xmlns:xlink="http://www.w3.org/1999/xlink" width="103px" height="103px" xmlns="http://www.w3.org/2000/svg">
  <g transform="matrix(1 0 0 1 -1288 -174 )">
    <path d="M 1339.5 178.5  C 1365.82 178.5  1386.5 199.18  1386.5 225.5  C 1386.5 251.82  1365.82 272.5  1339.5 272.5  C 1313.18 272.5  1292.5 251.82  1292.5 225.5  C 1292.5 199.18  1313.18 178.5  1339.5 178.5  Z " fill-rule="nonzero" fill="#ffffff" stroke="none" />
    <path d="M 1339.5 176.5  C 1366.94 176.5  1388.5 198.06  1388.5 225.5  C 1388.5 252.94  1366.94 274.5  1339.5 274.5  C 1312.06 274.5  1290.5 252.94  1290.5 225.5  C 1290.5 198.06  1312.06 176.5  1339.5 176.5  Z " stroke-width="5" stroke="#000000" fill="none" stroke-opacity="0.0392156862745098" />
  </g>
</svg>