<?xml version="1.0" encoding="utf-8"?>
<svg version="1.1" xmlns:xlink="http://www.w3.org/1999/xlink" width="803px" height="439px" xmlns="http://www.w3.org/2000/svg">
  <g transform="matrix(1 0 0 1 -1102 -334 )">
    <path d="M 802.5 0  L 0.5 0  L 0.5 435.9753466872108  C 0 437.10915254237227  0.49794920037630097 438  1.131702728127941 438.5  L 800.868297271872 438.5  C 801.5020507996238 438  802 437.10915254237227  802.5 435.9753466872108  L 802.5 0  Z " fill-rule="nonzero" fill="#ffffff" stroke="none" transform="matrix(1 0 0 1 1102 334 )" />
    <path d="M 0.5 0  L 0.5 435.9753466872108  C 0 437.10915254237227  0.49794920037630097 438  1.131702728127941 438.5  L 800.868297271872 438.5  C 801.5020507996238 438  802 437.10915254237227  802.5 435.9753466872108  L 802.5 0  " stroke-width="1" stroke="#e9e9e9" fill="none" transform="matrix(1 0 0 1 1102 334 )" />
  </g>
</svg>