<?xml version="1.0" encoding="utf-8"?>
<svg version="1.1" xmlns:xlink="http://www.w3.org/1999/xlink" width="398px" height="306px" xmlns="http://www.w3.org/2000/svg">
  <g transform="matrix(1 0 0 1 -1487 -745 )">
    <path d="M 397.5 0  L 0.5 0  L 0.5 303.59013867488426  C 0 304.3796610169488  0.24649106302916643 305  0.560206961429916 305.5  L 396.4397930385701 305.5  C 396.75350893697083 305  397 304.3796610169488  397.5 303.59013867488426  L 397.5 0  Z " fill-rule="nonzero" fill="#ffffff" stroke="none" transform="matrix(1 0 0 1 1487 745 )" />
    <path d="M 0.5 0  L 0.5 303.59013867488426  C 0 304.3796610169488  0.24649106302916643 305  0.560206961429916 305.5  L 396.4397930385701 305.5  C 396.75350893697083 305  397 304.3796610169488  397.5 303.59013867488426  L 397.5 0  " stroke-width="1" stroke="#e9e9e9" fill="none" transform="matrix(1 0 0 1 1487 745 )" />
  </g>
</svg>