<?xml version="1.0" encoding="utf-8"?>
<svg version="1.1" xmlns:xlink="http://www.w3.org/1999/xlink" width="10px" height="9px" xmlns="http://www.w3.org/2000/svg">
  <g transform="matrix(1 0 0 1 -769 -788 )">
    <path d="M 9.209735576923077 0.8405539772727272  C 9.736578525641026 1.4009232954545443  10 2.07528409090909  10 2.863636363636364  L 10 4.5  C 10 4.610795454545453  9.961939102564104 4.706676136363637  9.885817307692307 4.787642045454546  C 9.809695512820513 4.868607954545455  9.719551282051283 4.909090909090908  9.615384615384615 4.909090909090908  L 9.230769230769232 4.909090909090908  C 9.126602564102566 4.909090909090908  9.036458333333334 4.868607954545455  8.960336538461538 4.787642045454546  C 8.884214743589745 4.706676136363637  8.846153846153847 4.610795454545453  8.846153846153847 4.5  L 8.846153846153847 2.863636363636364  C 8.846153846153847 2.411931818181818  8.695913461538462 2.0262784090909087  8.395432692307693 1.7066761363636358  C 8.094951923076923 1.3870738636363642  7.732371794871796 1.227272727272727  7.3076923076923075 1.227272727272727  C 6.883012820512821 1.227272727272727  6.5204326923076925 1.3870738636363642  6.219951923076923 1.7066761363636358  C 5.919471153846154 2.0262784090909087  5.76923076923077 2.411931818181818  5.769230769230768 2.863636363636364  L 5.769230769230768 4.090909090909092  L 6.346153846153846 4.090909090909092  C 6.506410256410256 4.090909090909092  6.642628205128206 4.150568181818182  6.7548076923076925 4.269886363636364  C 6.86698717948718 4.389204545454545  6.923076923076923 4.534090909090908  6.923076923076923 4.704545454545454  L 6.923076923076923 8.386363636363637  C 6.923076923076923 8.556818181818182  6.86698717948718 8.701704545454545  6.7548076923076925 8.821022727272727  C 6.642628205128206 8.94034090909091  6.506410256410256 9  6.346153846153846 9  L 0.576923076923077 9  C 0.41666666666666674 9  0.280448717948718 8.94034090909091  0.16826923076923075 8.821022727272727  C 0.056089743589743585 8.701704545454545  0 8.556818181818182  0 8.386363636363637  L 0 4.704545454545454  C 0 4.534090909090908  0.056089743589743585 4.389204545454545  0.16826923076923075 4.269886363636364  C 0.280448717948718 4.150568181818182  0.41666666666666674 4.090909090909092  0.576923076923077 4.090909090909092  L 4.615384615384616 4.090909090909092  L 4.615384615384616 2.863636363636364  C 4.615384615384616 2.07528409090909  4.878806089743589 1.4009232954545443  5.405649038461538 0.8405539772727272  C 5.932491987179488 0.28018465909090906  6.566506410256411 0  7.3076923076923075 0  C 8.048878205128206 0  8.68289262820513 0.28018465909090906  9.209735576923077 0.8405539772727272  Z " fill-rule="nonzero" fill="#1890ff" stroke="none" transform="matrix(1 0 0 1 769 788 )" />
  </g>
</svg>