<?xml version="1.0" encoding="utf-8"?>
<svg version="1.1" xmlns:xlink="http://www.w3.org/1999/xlink" width="10px" height="8px" xmlns="http://www.w3.org/2000/svg">
  <g transform="matrix(1 0 0 1 -903 -287 )">
    <path d="M 9.998928377757352 3.99976486672794  C 9.998928377757352 3.1635435891544113  9.673149253216911 2.3759599264705873  9.082490889246325 1.7852545381433822  C 8.490362936580883 1.1931736213235293  7.703496438419117 0.8673944967830878  6.867251654411764 0.8673944967830878  L 3.580233191636029 0.8673944967830878  L 3.580233191636029 0.23877364430147033  C 3.580233191636029 0.03829780560661747  3.4427381778492654 -0.03692178308823557  3.273076734834559 0.0719573299632351  L 1.760208340992647 1.0485305032169114  C 1.5912523092830884 1.1580562499999996  1.5926631089154415 1.33349024586397  1.763817658547794 1.4394184283088236  L 3.2701845818014705 2.3723388442095588  C 3.439904802389706 2.4783258042279406  3.580233191636029 2.4002610868566183  3.580233191636029 2.1997970128676476  L 3.580233191636029 1.5733629021139706  L 6.8679688074448535 1.5733629021139706  C 8.205379687499999 1.5733629021139706  9.293665360753675 2.6623539751838234  9.293665360753675 3.9990712201286773  C 9.293665360753675 4.2210148552389715  9.264344060202204 4.440113373161766  9.205619175091911 4.650558915441176  C 9.153336971507352 4.838854779411765  9.263626907169117 5.0329349609375  9.451922771139703 5.084452975643381  C 9.483442578124999 5.094504986213233  9.514903596047793 5.098760926011029  9.546423403033087 5.098760926011029  C 9.701059731158088 5.098760926011029  9.842869473805147 4.995689636948529  9.886510477941176 4.840336132812499  C 9.9616712890625 4.567544611672793  9.998928377757352 4.284689326746323  9.998928377757352 3.99976486672794  Z M 8.502542922794117 6.950317336856617  C 8.671498954503676 6.841449977022059  8.670088154871324 6.666051240808823  8.498933605238971 6.560076034007354  L 6.993272093290441 5.627143853400736  C 6.822129308363971 5.521227424172794  6.681800919117647 5.598527964154412  6.681800919117647 5.799709214154412  L 6.681800919117647 6.424779526654412  L 3.1334537568933825 6.424779526654412  C 1.7960193589154414 6.424779526654412  0.7077454503676474 5.3365056066176475  0.7077454388786765 3.999082973345588  C 0.7077454388786765 3.5308357421875  0.8416311351102943 3.076202803308824  1.0943891773897056 2.684538936121324  C 1.2003643841911766 2.520555997242647  1.1530552849264708 2.301504515165441  0.9898365349264706 2.1955410730698532  C 0.8258535960477941 2.0902830307904416  0.6068021139705884 2.137533340992648  0.5015440716911764 2.3007403377757356  C 0.1743541360294118 2.806950068933824  0.0010716222426470732 3.394763292738971  0.0010716222426470732 3.9997766199448535  C 0.0010716222426470732 4.836738568474265  0.3268507467830883 5.622899666819854  0.918214510569853 6.214263430606618  C 1.5096370519301472 6.806391383272059  2.296491808363971 7.132158743106618  3.1334537568933825 7.132158754595588  L 6.682518072150736 7.132158754595588  L 6.682518072150736 7.760791360294117  C 6.682518072150736 7.961960845588235  6.820718485753677 8.037121656709559  6.9896745289522055 7.927607674632354  L 8.502542922794117 6.950317336856617  Z " fill-rule="nonzero" fill="#02a7f0" stroke="none" transform="matrix(1 0 0 1 903 287 )" />
  </g>
</svg>