<?xml version="1.0" encoding="utf-8"?>
<svg version="1.1" xmlns:xlink="http://www.w3.org/1999/xlink" width="20px" height="22px" xmlns="http://www.w3.org/2000/svg">
  <g transform="matrix(1 0 0 1 -1378 -392 )">
    <path d="M 19.635416666666668 0.3701923076923088  C 19.87847222222222 0.6169871794871773  20 0.9166666666666659  20 1.2692307692307696  L 20 16.07692307692308  C 20 16.517628205128204  19.852430555555554 16.90985576923077  19.557291666666668 17.25360576923077  C 19.26215277777778 17.59735576923077  18.88888888888889 17.863982371794872  18.4375 18.05348557692308  C 17.986111111111114 18.24298878205128  17.536892361111114 18.38401442307692  17.08984375 18.4765625  C 16.64279513888889 18.56911057692308  16.223958333333332 18.615384615384617  15.833333333333332 18.615384615384617  C 15.442708333333332 18.615384615384617  15.023871527777779 18.56911057692308  14.576822916666668 18.4765625  C 14.129774305555555 18.38401442307692  13.680555555555555 18.24298878205128  13.229166666666668 18.05348557692308  C 12.777777777777779 17.863982371794872  12.404513888888891 17.59735576923077  12.109375 17.25360576923077  C 11.81423611111111 16.90985576923077  11.666666666666668 16.517628205128204  11.666666666666668 16.07692307692308  C 11.666666666666668 15.636217948717949  11.81423611111111 15.243990384615385  12.109375 14.900240384615385  C 12.404513888888891 14.556490384615385  12.777777777777779 14.289863782051281  13.229166666666668 14.100360576923078  C 13.680555555555555 13.91085737179487  14.129774305555555 13.76983173076923  14.576822916666668 13.677283653846155  C 15.023871527777779 13.584735576923078  15.442708333333332 13.53846153846154  15.833333333333332 13.53846153846154  C 16.744791666666668 13.53846153846154  17.578125 13.71033653846154  18.333333333333332 14.05408653846154  L 18.333333333333332 6.954326923076924  L 8.333333333333334 10.087740384615385  L 8.333333333333334 19.46153846153846  C 8.333333333333334 19.90224358974359  8.18576388888889 20.294471153846153  7.890625 20.638221153846153  C 7.595486111111112 20.981971153846153  7.222222222222223 21.24859775641026  6.770833333333334 21.43810096153846  C 6.3194444444444455 21.627604166666664  5.8702256944444455 21.76862980769231  5.423177083333334 21.861177884615383  C 4.976128472222222 21.95372596153846  4.557291666666667 22  4.166666666666667 22  C 3.776041666666667 22  3.3572048611111116 21.95372596153846  2.91015625 21.861177884615383  C 2.4631076388888893 21.76862980769231  2.0138888888888893 21.627604166666664  1.5625 21.43810096153846  C 1.1111111111111112 21.24859775641026  0.7378472222222222 20.981971153846153  0.44270833333333337 20.638221153846153  C 0.14756944444444442 20.294471153846153  0 19.90224358974359  0 19.46153846153846  C 0 19.020833333333336  0.14756944444444442 18.62860576923077  0.44270833333333337 18.28485576923077  C 0.7378472222222222 17.94110576923077  1.1111111111111112 17.674479166666664  1.5625 17.48497596153846  C 2.0138888888888893 17.29547275641026  2.4631076388888893 17.154447115384617  2.91015625 17.06189903846154  C 3.3572048611111116 16.96935096153846  3.776041666666667 16.92307692307692  4.166666666666667 16.92307692307692  C 5.078125 16.92307692307692  5.911458333333334 17.09495192307692  7 17.43870192307692  L 7 4.653846153846154  C 6.666666666666666 4.380608974358973  6.7491319444444455 4.131610576923076  6.9140625 3.906850961538461  C 7.078993055555557 3.682091346153846  7.291666666666666 3.525641025641023  7.552083333333334 3.4375  L 18.385416666666668 0.0528846153846152  C 18.489583333333332 0.017628205128205066  18.611111111111114 0  18.75 0  C 19.09722222222222 0  19.392361111111114 0.12339743589743546  19.635416666666668 0.3701923076923088  Z " fill-rule="nonzero" fill="#797979" stroke="none" transform="matrix(1 0 0 1 1378 392 )" />
  </g>
</svg>