<?xml version="1.0" encoding="utf-8"?>
<svg version="1.1" xmlns:xlink="http://www.w3.org/1999/xlink" width="399px" height="898px" xmlns="http://www.w3.org/2000/svg">
  <g transform="matrix(1 0 0 1 -296 -153 )">
    <path d="M 398.5 0  L 0.5 0  L 0.5 892.8536209553153  C 0 895.1755932203379  0.24711194731891245 897  0.5616180620884296 897.5  L 397.4383819379116 897.5  C 397.7528880526811 897  398 895.1755932203379  398.5 892.8536209553153  L 398.5 0  Z " fill-rule="nonzero" fill="#ffffff" stroke="none" transform="matrix(1 0 0 1 296 153 )" />
    <path d="M 0.5 0  L 0.5 892.8536209553153  C 0 895.1755932203379  0.24711194731891245 897  0.5616180620884296 897.5  L 397.4383819379116 897.5  C 397.7528880526811 897  398 895.1755932203379  398.5 892.8536209553153  L 398.5 0  " stroke-width="1" stroke="#e9e9e9" fill="none" transform="matrix(1 0 0 1 296 153 )" />
  </g>
</svg>