<?xml version="1.0" encoding="utf-8"?>
<svg version="1.1" xmlns:xlink="http://www.w3.org/1999/xlink" width="32px" height="32px" xmlns="http://www.w3.org/2000/svg">
  <g transform="matrix(1 0 0 1 -834 -43 )">
    <path d="M 850 43.5  C 858.68 43.5  865.5 50.32  865.5 59  C 865.5 67.68  858.68 74.5  850 74.5  C 841.32 74.5  834.5 67.68  834.5 59  C 834.5 50.32  841.32 43.5  850 43.5  Z " fill-rule="nonzero" fill="#ffffff" stroke="none" fill-opacity="0" />
    <path d="M 850 43.5  C 858.68 43.5  865.5 50.32  865.5 59  C 865.5 67.68  858.68 74.5  850 74.5  C 841.32 74.5  834.5 67.68  834.5 59  C 834.5 50.32  841.32 43.5  850 43.5  Z " stroke-width="1" stroke="#000000" fill="none" stroke-opacity="0.14901960784313725" />
  </g>
</svg>