<?xml version="1.0" encoding="utf-8"?>
<svg version="1.1" xmlns:xlink="http://www.w3.org/1999/xlink" width="16px" height="9px" xmlns="http://www.w3.org/2000/svg">
  <g transform="matrix(1 0 0 1 -1287 -415 )">
    <path d="M 15.703125 0.29687500000000044  C 15.901041666666668 0.49479166666666574  16 0.7291666666666644  16 1.0000000000000004  C 16 1.2708333333333326  15.901041666666668 1.5052083333333321  15.703125 1.7031250000000004  L 8.703125 8.703125  C 8.505208333333334 8.901041666666668  8.270833333333334 9  8 9  C 7.729166666666668 9  7.494791666666668 8.901041666666668  7.296875 8.703125  L 0.296875 1.7031250000000004  C 0.09895833333333333 1.5052083333333321  0 1.2708333333333326  0 1.0000000000000004  C 0 0.7291666666666644  0.09895833333333333 0.49479166666666574  0.296875 0.29687500000000044  C 0.4947916666666667 0.09895833333333215  0.7291666666666667 0  1 0  L 15 0  C 15.270833333333334 0  15.505208333333334 0.09895833333333215  15.703125 0.29687500000000044  Z " fill-rule="nonzero" fill="#aaaaaa" stroke="none" transform="matrix(1 0 0 1 1287 415 )" />
  </g>
</svg>