<?xml version="1.0" encoding="utf-8"?>
<svg version="1.1" xmlns:xlink="http://www.w3.org/1999/xlink" width="641px" height="1081px" xmlns="http://www.w3.org/2000/svg">
  <g transform="matrix(1 0 0 1 -1279 0 )">
    <path d="M 640.5 0  L 0.5 0  L 0.5 1074.8693586698337  C 0 1077.7425178147269  0.4992907801420188 1080  1.1347517730495156 1080.5  L 638.8652482269504 1080.5  C 639.5007092198584 1080  640 1077.7425178147269  640.5 1074.8693586698337  L 640.5 0  Z " fill-rule="nonzero" fill="#ffffff" stroke="none" transform="matrix(1 0 0 1 1279 0 )" />
    <path d="M 0.5 0  L 0.5 1074.8693586698337  C 0 1077.7425178147269  0.4992907801420188 1080  1.1347517730495156 1080.5  L 638.8652482269504 1080.5  C 639.5007092198584 1080  640 1077.7425178147269  640.5 1074.8693586698337  L 640.5 0  " stroke-width="1" stroke="#e9e9e9" fill="none" transform="matrix(1 0 0 1 1279 0 )" />
  </g>
</svg>