<?xml version="1.0" encoding="utf-8"?>
<svg version="1.1" xmlns:xlink="http://www.w3.org/1999/xlink" width="11px" height="12px" xmlns="http://www.w3.org/2000/svg">
  <g transform="matrix(1 0 0 1 -1622 -129 )">
    <path d="M 10.423502604166668 3.9879807692307687  C 10.807834201388888 4.762019230769231  11 5.58653846153846  11 6.461538461538462  C 11 7.211538461538462  10.854383680555554 7.927884615384615  10.563151041666668 8.610576923076923  C 10.271918402777779 9.293269230769232  9.880425347222223 9.882211538461538  9.388671875 10.377403846153847  C 8.896918402777779 10.872596153846153  8.312065972222223 11.266826923076922  7.634114583333333 11.560096153846153  C 6.9561631944444455 11.853365384615385  6.244791666666667 12  5.5 12  C 4.755208333333334 12  4.043836805555556 11.853365384615385  3.3658854166666665 11.560096153846153  C 2.687934027777778 11.266826923076922  2.1030815972222223 10.872596153846153  1.611328125 10.377403846153847  C 1.119574652777778 9.882211538461538  0.7280815972222223 9.293269230769232  0.43684895833333337 8.610576923076923  C 0.14561631944444448 7.927884615384615  0 7.211538461538462  0 6.461538461538462  C 0 5.58653846153846  0.19216579861111116 4.762019230769231  0.5764973958333333 3.9879807692307687  C 0.9608289930555557 3.2139423076923066  1.5015190972222225 2.5649038461538454  2.198567708333333 2.040865384615385  C 2.4038628472222223 1.887019230769229  2.6318359375 1.8269230769230758  2.8824869791666665 1.8605769230769225  C 3.1331380208333335 1.8942307692307678  3.3324652777777777 2.0144230769230758  3.48046875 2.2211538461538463  C 3.6332465277777777 2.4230769230769225  3.6917317708333335 2.650240384615385  3.6559244791666665 2.9026442307692313  C 3.6201171875 3.1550480769230775  3.501953125 3.3581730769230753  3.3014322916666665 3.5120192307692313  C 2.8335503472222223 3.867788461538461  2.471896701388889 4.302884615384614  2.216471354166667 4.8173076923076925  C 1.9610460069444446 5.331730769230768  1.8333333333333333 5.879807692307692  1.8333333333333333 6.461538461538462  C 1.8333333333333333 6.961538461538461  1.9300130208333333 7.4387019230769225  2.123372395833333 7.893028846153847  C 2.316731770833333 8.34735576923077  2.578125 8.740384615384615  2.9075520833333335 9.072115384615385  C 3.2369791666666665 9.403846153846153  3.6272786458333335 9.667067307692307  4.078450520833334 9.861778846153847  C 4.529622395833334 10.056490384615385  5.003472222222223 10.153846153846153  5.5 10.153846153846153  C 5.996527777777779 10.153846153846153  6.470377604166667 10.056490384615385  6.921549479166667 9.861778846153847  C 7.372721354166667 9.667067307692307  7.763020833333333 9.403846153846153  8.092447916666668 9.072115384615385  C 8.421875 8.740384615384615  8.683268229166668 8.34735576923077  8.876627604166668 7.893028846153847  C 9.069986979166668 7.4387019230769225  9.166666666666668 6.961538461538461  9.166666666666668 6.461538461538462  C 9.166666666666668 5.879807692307692  9.038953993055555 5.331730769230768  8.783528645833332 4.8173076923076925  C 8.528103298611112 4.302884615384614  8.166449652777779 3.867788461538461  7.698567708333333 3.5120192307692313  C 7.498046875 3.3581730769230753  7.3798828125 3.1550480769230775  7.344075520833333 2.9026442307692313  C 7.308268229166667 2.650240384615385  7.366753472222223 2.4230769230769225  7.51953125 2.2211538461538463  C 7.667534722222223 2.0144230769230758  7.868055555555555 1.8942307692307678  8.12109375 1.8605769230769225  C 8.374131944444446 1.8269230769230758  8.600911458333332 1.887019230769229  8.801432291666668 2.040865384615385  C 9.498480902777779 2.5649038461538454  10.039171006944446 3.2139423076923066  10.423502604166668 3.9879807692307687  Z M 6.14453125 0.27403846153846123  C 6.325954861111112 0.4567307692307683  6.416666666666667 0.673076923076922  6.416666666666667 0.9230769230769225  L 6.416666666666667 5.538461538461538  C 6.416666666666667 5.788461538461538  6.325954861111112 6.004807692307692  6.14453125 6.1875  C 5.96310763888889 6.370192307692307  5.74826388888889 6.461538461538462  5.5 6.461538461538462  C 5.251736111111112 6.461538461538462  5.036892361111112 6.370192307692307  4.85546875 6.1875  C 4.674045138888889 6.004807692307692  4.583333333333334 5.788461538461538  4.583333333333334 5.538461538461538  L 4.583333333333334 0.9230769230769225  C 4.583333333333334 0.673076923076922  4.674045138888889 0.4567307692307683  4.85546875 0.27403846153846123  C 5.036892361111112 0.09134615384615419  5.251736111111112 0  5.5 0  C 5.74826388888889 0  5.96310763888889 0.09134615384615419  6.14453125 0.27403846153846123  Z " fill-rule="nonzero" fill="#ffffff" stroke="none" transform="matrix(1 0 0 1 1622 129 )" />
  </g>
</svg>