<?xml version="1.0" encoding="utf-8"?>
<svg version="1.1" xmlns:xlink="http://www.w3.org/1999/xlink" width="11px" height="6px" xmlns="http://www.w3.org/2000/svg">
  <g transform="matrix(1 0 0 1 -1860 -123 )">
    <path d="M 10.672238372093023 0.13205357142857072  L 10.860901162790698 0.3214285714285714  C 10.964927357598391 0.4260267459337005  10.964927357598391 0.5955803969234426  10.860901162790698 0.7001785714285718  L 5.679336240310077 5.9089285714285715  C 5.629354388842903 5.959225993668775  5.561531049638802 5.987487497254225  5.490806686046511 5.987487497254225  C 5.42008232245422 5.987487497254225  5.352258983250121 5.959225993668775  5.3022771317829465 5.9089285714285715  L 0.12071220930232547 0.7001785714285718  C 0.01668601449463395 0.5955803969234426  0.01668601449463395 0.4260267459337005  0.12071220930232547 0.3214285714285714  L 0.30910852713178294 0.13205357142857072  C 0.41316614259554185 0.027486980803696985  0.5818435473269384 0.027486980803696985  0.6859011627906973 0.13205357142857072  L 5.4906734496124034 4.961785714285714  L 10.295712209302327 0.13205357142857072  C 10.399769824766086 0.027486980803696985  10.568447229497483 0.027486980803696985  10.672504844961242 0.13205357142857072  Z " fill-rule="nonzero" fill="#1890ff" stroke="none" transform="matrix(1 0 0 1 1860 123 )" />
  </g>
</svg>