<?xml version="1.0" encoding="utf-8"?>
<svg version="1.1" xmlns:xlink="http://www.w3.org/1999/xlink" width="12px" height="6px" xmlns="http://www.w3.org/2000/svg">
  <g transform="matrix(1 0 0 1 -1879 -293 )">
    <path d="M 11.642441860465116 0.13205357142857072  L 11.84825581395349 0.3214285714285714  C 11.96173893556188 0.4260267459337005  11.96173893556188 0.5955803969234426  11.84825581395349 0.7001785714285718  L 6.195639534883719 5.9089285714285715  C 6.141113878737713 5.959225993668775  6.067124781424147 5.987487497254225  5.989970930232557 5.987487497254225  C 5.912817079040966 5.987487497254225  5.838827981727405 5.959225993668775  5.784302325581396 5.9089285714285715  L 0.1316860465116278 0.7001785714285718  C 0.018202924903237036 0.5955803969234426  0.018202924903237036 0.4260267459337005  0.1316860465116278 0.3214285714285714  L 0.33720930232558144 0.13205357142857072  C 0.45072670101331835 0.027486980803696985  0.6347384152657509 0.027486980803696985  0.7482558139534881 0.13205357142857072  L 5.989825581395349 4.961785714285714  L 11.23168604651163 0.13205357142857072  C 11.345203445199367 0.027486980803696985  11.5292151594518 0.027486980803696985  11.642732558139537 0.13205357142857072  Z " fill-rule="nonzero" fill="#1890ff" stroke="none" transform="matrix(1 0 0 1 1879 293 )" />
  </g>
</svg>