<?xml version="1.0" encoding="utf-8"?>
<svg version="1.1" xmlns:xlink="http://www.w3.org/1999/xlink" width="19px" height="19px" xmlns="http://www.w3.org/2000/svg">
  <g transform="matrix(1 0 0 1 -1031 -445 )">
    <path d="M 4.7314453125 1.274088541666666  C 6.186957465277778 0.4246961805555539  7.776475694444445 0  9.5 0  C 11.223524305555555 0  12.813042534722225 0.4246961805555539  14.2685546875 1.274088541666666  C 15.724066840277779 2.123480902777776  16.876519097222225 3.275933159722222  17.725911458333336 4.7314453125  C 18.575303819444443 6.186957465277776  19 7.776475694444442  19 9.5  C 19 11.223524305555555  18.575303819444443 12.81304253472222  17.725911458333336 14.2685546875  C 16.876519097222225 15.724066840277779  15.724066840277779 16.87651909722222  14.2685546875 17.725911458333336  C 12.813042534722225 18.575303819444446  11.223524305555555 19  9.5 19  C 7.776475694444445 19  6.186957465277778 18.575303819444446  4.7314453125 17.725911458333336  C 3.2759331597222223 16.87651909722222  2.123480902777778 15.724066840277779  1.2740885416666667 14.2685546875  C 0.42469618055555547 12.81304253472222  0 11.223524305555555  0 9.5  C 0 7.776475694444442  0.42469618055555547 6.186957465277776  1.2740885416666667 4.7314453125  C 2.123480902777778 3.275933159722222  3.2759331597222223 2.123480902777776  4.7314453125 1.274088541666666  Z M 7.520833333333333 14.138671875  L 14.25 10.180338541666668  C 14.51388888888889 10.031901041666668  14.645833333333334 9.805121527777775  14.645833333333334 9.5  C 14.645833333333334 9.194878472222221  14.51388888888889 8.968098958333334  14.25 8.819661458333334  L 7.520833333333333 4.861328125  C 7.265190972222223 4.704644097222222  7.001302083333333 4.700520833333334  6.729166666666667 4.848958333333334  C 6.4652777777777795 5.00564236111111  6.333333333333333 5.2365451388888875  6.333333333333333 5.541666666666666  L 6.333333333333333 13.458333333333332  C 6.333333333333333 13.763454861111107  6.4652777777777795 13.994357638888888  6.729166666666667 14.151041666666668  C 6.8611111111111125 14.217013888888888  6.993055555555556 14.25  7.125 14.25  C 7.265190972222223 14.25  7.397135416666667 14.212890625  7.520833333333333 14.138671875  Z " fill-rule="nonzero" fill="#02a7f0" stroke="none" transform="matrix(1 0 0 1 1031 445 )" />
  </g>
</svg>