<?xml version="1.0" encoding="utf-8"?>
<svg version="1.1" xmlns:xlink="http://www.w3.org/1999/xlink" width="12px" height="11px" xmlns="http://www.w3.org/2000/svg">
  <g transform="matrix(1 0 0 1 -416 -173 )">
    <path d="M 4.123009675781249 3.76971589453125  L 5.250702468749999 2.453200125  L 5.250702468749999 7.5042148007812495  L 6.749297531249999 7.5042148007812495  L 6.749297531249999 2.453200125  L 7.876990324218749 3.7689665976562496  L 9.009178898437499 2.6367780234374996  L 6.749297531250001 0  L 6.73730876953125 0.01123946484375  L 5.26269123046875 0.01123946484375  L 5.250702468749999 0  L 2.9908211015624997 2.6375273203125  L 4.123009675781249 3.76971589453125  Z M 11.24508273046875 4.5070246640625005  L 9.74648766796875 4.5070246640625005  L 9.74648766796875 9.00280986328125  L 2.2535123320312502 9.00280986328125  L 2.2535123320312502 4.5070246640625005  L 0.75491726953125 4.5070246640625005  L 0.7549172695312498 9.75210739453125  C 0.7549172695312496 10.165933005845238  1.0903892011860123 10.5014049375  1.50421480078125 10.5014049375  L 10.495785199218751 10.5014049375  C 10.909610798813986 10.5014049375  11.24508273046875 10.165933005845238  11.24508273046875 9.752107406250001  L 11.24508273046875 4.5070246640625005  Z " fill-rule="nonzero" fill="#ffffff" stroke="none" transform="matrix(1 0 0 1 416 173 )" />
  </g>
</svg>