<?xml version="1.0" encoding="utf-8"?>
<svg version="1.1" xmlns:xlink="http://www.w3.org/1999/xlink" width="14px" height="14px" xmlns="http://www.w3.org/2000/svg">
  <g transform="matrix(1 0 0 1 -1270 -413 )">
    <path d="M 1277 414  C 1280.36 414  1283 416.64  1283 420  C 1283 423.36  1280.36 426  1277 426  C 1273.64 426  1271 423.36  1271 420  C 1271 416.64  1273.64 414  1277 414  Z " fill-rule="nonzero" fill="#ffffff" stroke="none" />
    <path d="M 1277 414  C 1280.36 414  1283 416.64  1283 420  C 1283 423.36  1280.36 426  1277 426  C 1273.64 426  1271 423.36  1271 420  C 1271 416.64  1273.64 414  1277 414  Z " stroke-width="2" stroke="#91d5ff" fill="none" />
  </g>
</svg>