<?xml version="1.0" encoding="utf-8"?>
<svg version="1.1" xmlns:xlink="http://www.w3.org/1999/xlink" width="13px" height="19px" xmlns="http://www.w3.org/2000/svg">
  <g transform="matrix(1 0 0 1 -468 -987 )">
    <path d="M 12.785590277777777 7.524639423076923  C 12.928530092592593 7.669270833333332  13 7.84054487179487  13 8.03846153846154  L 13 9.5  C 13 11.182291666666666  12.445167824074076 12.645733173076923  11.335503472222223 13.89032451923077  C 10.22583912037037 15.134915865384613  8.85474537037037 15.848557692307693  7.222222222222222 16.03125  L 7.222222222222222 17.53846153846154  L 10.11111111111111 17.53846153846154  C 10.306712962962964 17.53846153846154  10.475983796296298 17.610777243589745  10.61892361111111 17.755408653846153  C 10.761863425925927 17.900040064102566  10.833333333333336 18.071314102564102  10.833333333333334 18.26923076923077  C 10.833333333333336 18.467147435897434  10.761863425925927 18.638421474358974  10.61892361111111 18.783052884615383  C 10.475983796296298 18.927684294871796  10.306712962962964 19  10.11111111111111 19  L 2.888888888888889 19  C 2.693287037037037 19  2.524016203703704 18.927684294871796  2.381076388888889 18.783052884615383  C 2.238136574074074 18.638421474358974  2.1666666666666665 18.467147435897434  2.1666666666666665 18.26923076923077  C 2.1666666666666665 18.071314102564102  2.238136574074074 17.900040064102566  2.381076388888889 17.755408653846153  C 2.524016203703704 17.610777243589745  2.693287037037037 17.53846153846154  2.888888888888889 17.53846153846154  L 5.777777777777778 17.53846153846154  L 5.777777777777778 16.03125  C 4.14525462962963 15.848557692307693  2.7741608796296298 15.134915865384613  1.664496527777778 13.89032451923077  C 0.5548321759259259 12.645733173076923  0 11.182291666666666  0 9.5  L 0 8.03846153846154  C 0 7.84054487179487  0.07146990740740741 7.669270833333332  0.21440972222222224 7.524639423076923  C 0.35734953703703703 7.380008012820513  0.5266203703703705 7.307692307692307  0.7222222222222222 7.307692307692307  C 0.9178240740740742 7.307692307692307  1.0870949074074074 7.380008012820513  1.230034722222222 7.524639423076923  C 1.3729745370370372 7.669270833333332  1.4444444444444444 7.84054487179487  1.4444444444444444 8.03846153846154  L 1.4444444444444444 9.5  C 1.4444444444444444 10.908253205128203  1.9390914351851856 12.112880608974358  2.9283854166666665 13.11388221153846  C 3.9176793981481484 14.114883814102562  5.108217592592593 14.615384615384613  6.5 14.615384615384613  C 7.891782407407408 14.615384615384613  9.082320601851851 14.114883814102562  10.071614583333334 13.11388221153846  C 11.060908564814817 12.112880608974358  11.555555555555555 10.908253205128203  11.555555555555555 9.5  L 11.555555555555555 8.03846153846154  C 11.555555555555555 7.84054487179487  11.627025462962964 7.669270833333332  11.769965277777777 7.524639423076923  C 11.912905092592593 7.380008012820513  12.082175925925927 7.307692307692307  12.277777777777777 7.307692307692307  C 12.473379629629632 7.307692307692307  12.642650462962964 7.380008012820513  12.785590277777777 7.524639423076923  Z M 9.050347222222223 1.073317307692307  C 9.757523148148149 1.7888621794871784  10.11111111111111 2.649038461538461  10.11111111111111 3.6538461538461533  L 10.11111111111111 9.5  C 10.11111111111111 10.504807692307693  9.757523148148149 11.364983974358973  9.050347222222223 12.080528846153847  C 8.343171296296298 12.796073717948717  7.493055555555555 13.153846153846153  6.5 13.153846153846153  C 5.506944444444445 13.153846153846153  4.656828703703705 12.796073717948717  3.9496527777777777 12.080528846153847  C 3.2424768518518525 11.364983974358973  2.888888888888889 10.504807692307693  2.888888888888889 9.5  L 2.888888888888889 3.6538461538461533  C 2.888888888888889 2.649038461538461  3.2424768518518525 1.7888621794871784  3.9496527777777777 1.073317307692307  C 4.656828703703705 0.3577724358974378  5.506944444444445 0  6.5 0  C 7.493055555555555 0  8.343171296296298 0.3577724358974378  9.050347222222223 1.073317307692307  Z " fill-rule="nonzero" fill="#ffffff" stroke="none" transform="matrix(1 0 0 1 468 987 )" />
  </g>
</svg>