<?xml version="1.0" encoding="utf-8"?>
<svg version="1.1" xmlns:xlink="http://www.w3.org/1999/xlink" width="8px" height="8px" xmlns="http://www.w3.org/2000/svg">
  <g transform="matrix(1 0 0 1 -1242 -207 )">
    <path d="M 7.8203125 4.716145833333334  C 7.853298611111112 4.749131944444445  7.869791666666667 4.788194444444445  7.869791666666667 4.833333333333334  C 7.869791666666667 4.850694444444445  7.868055555555556 4.862847222222221  7.864583333333333 4.869791666666666  C 7.642361111111112 5.800347222222221  7.177083333333333 6.5546875  6.46875 7.1328125  C 5.760416666666667 7.7109375  4.930555555555556 8  3.9791666666666665 8  C 3.4722222222222228 8  2.9817708333333335 7.904513888888889  2.5078125 7.713541666666667  C 2.0338541666666665 7.522569444444444  1.6111111111111114 7.25  1.2395833333333333 6.895833333333333  L 0.5677083333333334 7.567708333333333  C 0.5017361111111112 7.633680555555556  0.42361111111111116 7.666666666666667  0.3333333333333333 7.666666666666667  C 0.24305555555555558 7.666666666666667  0.16493055555555555 7.633680555555556  0.09895833333333333 7.567708333333333  C 0.03298611111111111 7.501736111111111  0 7.423611111111111  0 7.333333333333333  L 0 5  C 0 4.909722222222221  0.03298611111111111 4.831597222222221  0.09895833333333333 4.765625  C 0.16493055555555555 4.699652777777777  0.24305555555555558 4.666666666666666  0.3333333333333333 4.666666666666666  L 2.6666666666666665 4.666666666666666  C 2.7569444444444446 4.666666666666666  2.8350694444444446 4.699652777777777  2.9010416666666665 4.765625  C 2.9670138888888893 4.831597222222221  3 4.909722222222221  3 5  C 3 5.090277777777777  2.9670138888888893 5.168402777777777  2.9010416666666665 5.234375  L 2.1875 5.947916666666666  C 2.434027777777778 6.177083333333333  2.7135416666666665 6.354166666666667  3.0260416666666665 6.479166666666667  C 3.3385416666666665 6.604166666666667  3.6631944444444446 6.666666666666667  4 6.666666666666667  C 4.465277777777778 6.666666666666667  4.899305555555556 6.553819444444444  5.302083333333333 6.328125  C 5.704861111111112 6.1024305555555545  6.027777777777779 5.791666666666666  6.270833333333333 5.395833333333334  C 6.309027777777779 5.336805555555555  6.401041666666667 5.133680555555555  6.546875 4.786458333333334  C 6.574652777777779 4.706597222222221  6.626736111111112 4.666666666666666  6.703125 4.666666666666666  L 7.703125 4.666666666666666  C 7.748263888888889 4.666666666666666  7.787326388888889 4.683159722222221  7.8203125 4.716145833333334  Z M 7.901041666666667 0.43229166666666696  C 7.967013888888888 0.4982638888888884  8 0.5763888888888884  8 0.666666666666667  L 8 3  C 8 3.0902777777777777  7.967013888888888 3.1684027777777777  7.901041666666667 3.234375  C 7.8350694444444455 3.3003472222222223  7.7569444444444455 3.333333333333333  7.666666666666667 3.333333333333333  L 5.333333333333333 3.333333333333333  C 5.243055555555556 3.333333333333333  5.164930555555556 3.3003472222222223  5.098958333333333 3.234375  C 5.032986111111112 3.1684027777777777  5.000000000000001 3.0902777777777777  5 3  C 5.000000000000001 2.9097222222222214  5.032986111111112 2.8315972222222214  5.098958333333333 2.765625  L 5.817708333333333 2.046875  C 5.3038194444444455 1.5711805555555545  4.697916666666667 1.333333333333333  4 1.333333333333333  C 3.5347222222222228 1.333333333333333  3.1006944444444446 1.4461805555555545  2.6979166666666665 1.671875  C 2.2951388888888893 1.8975694444444438  1.9722222222222225 2.208333333333333  1.7291666666666667 2.604166666666667  C 1.6909722222222223 2.6631944444444438  1.5989583333333333 2.8663194444444438  1.453125 3.213541666666667  C 1.4253472222222223 3.2934027777777777  1.373263888888889 3.333333333333333  1.296875 3.333333333333333  L 0.2604166666666667 3.333333333333333  C 0.21527777777777776 3.333333333333333  0.1762152777777778 3.3168402777777777  0.14322916666666666 3.283854166666667  C 0.11024305555555557 3.2508680555555554  0.09375 3.2118055555555554  0.09375 3.166666666666667  L 0.09375 3.130208333333333  C 0.3194444444444445 2.1996527777777777  0.7881944444444445 1.4453125  1.5 0.8671875  C 2.211805555555556 0.2890625  3.0451388888888893 0  4 0  C 4.506944444444445 0  5 0.09635416666666696  5.479166666666667 0.2890625  C 5.958333333333333 0.48177083333333304  6.383680555555556 0.7534722222222214  6.755208333333333 1.104166666666667  L 7.432291666666667 0.43229166666666696  C 7.498263888888889 0.36631944444444375  7.576388888888889 0.33333333333333304  7.666666666666667 0.33333333333333304  C 7.7569444444444455 0.33333333333333304  7.8350694444444455 0.36631944444444375  7.901041666666667 0.43229166666666696  Z " fill-rule="nonzero" fill="#ffffff" stroke="none" transform="matrix(1 0 0 1 1242 207 )" />
  </g>
</svg>