<?xml version="1.0" encoding="utf-8"?>
<svg version="1.1" xmlns:xlink="http://www.w3.org/1999/xlink" width="14px" height="14px" xmlns="http://www.w3.org/2000/svg">
  <g transform="matrix(1 0 0 1 -838 -428 )">
    <path d="M 845 429  C 848.36 429  851 431.64  851 435  C 851 438.36  848.36 441  845 441  C 841.64 441  839 438.36  839 435  C 839 431.64  841.64 429  845 429  Z " fill-rule="nonzero" fill="#ffffff" stroke="none" />
    <path d="M 845 429  C 848.36 429  851 431.64  851 435  C 851 438.36  848.36 441  845 441  C 841.64 441  839 438.36  839 435  C 839 431.64  841.64 429  845 429  Z " stroke-width="2" stroke="#91d5ff" fill="none" />
  </g>
</svg>