<?xml version="1.0" encoding="utf-8"?>
<svg version="1.1" xmlns:xlink="http://www.w3.org/1999/xlink" width="14px" height="13px" xmlns="http://www.w3.org/2000/svg">
  <g transform="matrix(1 0 0 1 -654 -178 )">
    <path d="M 6.301682692307692 1.1153305203938118  C 6.408253205128204 1.2311298640412556  6.461538461538462 1.3682606657290193  6.461538461538462 1.5267229254571024  L 6.461538461538462 11.473277074542898  C 6.461538461538462 11.631739334270979  6.408253205128204 11.768870135958743  6.301682692307692 11.884669479606188  C 6.19511217948718 12.000468823253634  6.068910256410256 12.058368495077355  5.923076923076923 12.058368495077355  C 5.77724358974359 12.058368495077355  5.651041666666667 12.000468823253634  5.544471153846154 11.884669479606188  L 2.7427884615384617 8.840365682137833  L 0.5384615384615385 8.840365682137833  C 0.3926282051282052 8.840365682137833  0.26642628205128205 8.782466010314112  0.15985576923076922 8.666666666666668  C 0.05328525641025641 8.55086732301922  0 8.413736521331458  0 8.255274261603375  L 0 4.744725738396625  C 0 4.586263478668541  0.05328525641025641 4.449132676980776  0.15985576923076922 4.333333333333334  C 0.26642628205128205 4.217533989685887  0.3926282051282052 4.159634317862166  0.5384615384615385 4.159634317862166  L 2.7427884615384617 4.159634317862166  L 5.544471153846154 1.1153305203938118  C 5.651041666666667 0.9995311767463666  5.77724358974359 0.9416315049226447  5.923076923076923 0.9416315049226447  C 6.068910256410256 0.9416315049226447  6.19511217948718 0.9995311767463666  6.301682692307692 1.1153305203938118  Z M 9.334735576923077 5.20182841068917  C 9.573116987179489 5.60407876230661  9.692307692307692 6.036802625410219  9.692307692307692 6.5  C 9.692307692307692 6.96319737458978  9.573116987179489 7.394397562119082  9.334735576923077 7.793600562587905  C 9.096354166666668 8.192803563056724  8.78084935897436 8.477730895452414  8.388221153846153 8.648382559774966  C 8.332131410256412 8.678856071261134  8.262019230769232 8.69409282700422  8.177884615384617 8.69409282700422  C 8.032051282051283 8.69409282700422  7.9058493589743595 8.637716830754805  7.799278846153846 8.524964838255977  C 7.692708333333334 8.412212845757148  7.639423076923077 8.273558368495078  7.639423076923077 8.10900140646976  C 7.639423076923077 7.981012658227847  7.673076923076923 7.872831692451944  7.740384615384616 7.784458509142054  C 7.807692307692308 7.69608532583216  7.889022435897437 7.619901547116737  7.984375 7.555907172995782  C 8.079727564102566 7.491912798874824  8.17508012820513 7.421823722456632  8.270432692307692 7.345639943741211  C 8.365785256410257 7.269456165025785  8.447115384615383 7.159751523675574  8.514423076923077 7.016526019690576  C 8.58173076923077 6.873300515705578  8.615384615384617 6.70112517580872  8.615384615384617 6.5  C 8.615384615384617 6.29887482419128  8.58173076923077 6.12669948429442  8.514423076923077 5.983473980309423  C 8.447115384615383 5.840248476324425  8.365785256410257 5.730543834974214  8.270432692307692 5.654360056258791  C 8.17508012820513 5.578176277543366  8.079727564102566 5.508087201125176  7.984375 5.44409282700422  C 7.889022435897437 5.380098452883263  7.807692307692308 5.303914674167838  7.740384615384616 5.215541490857946  C 7.673076923076923 5.127168307548054  7.639423076923077 5.018987341772151  7.639423076923077 4.890998593530239  C 7.639423076923077 4.726441631504922  7.692708333333334 4.58778715424285  7.799278846153846 4.475035161744023  C 7.9058493589743595 4.362283169245194  8.032051282051283 4.30590717299578  8.177884615384617 4.30590717299578  C 8.262019230769232 4.30590717299578  8.332131410256412 4.3211439287388655  8.388221153846153 4.351617440225035  C 8.78084935897436 4.5161744022503525  9.096354166666668 4.799578059071731  9.334735576923077 5.20182841068917  Z M 11.131009615384617 3.9173699015471164  C 11.607772435897438 4.706633849038912  11.846153846153847 5.567510548523207  11.846153846153847 6.5  C 11.846153846153847 7.432489451476793  11.607772435897438 8.293366150961086  11.131009615384617 9.082630098452881  C 10.654246794871796 9.871894045944678  10.02323717948718 10.446319737458976  9.23798076923077 10.80590717299578  C 9.165064102564104 10.836380684481949  9.094951923076923 10.851617440225034  9.02764423076923 10.851617440225034  C 8.876201923076923 10.851617440225034  8.747195512820513 10.793717768401313  8.640625 10.677918424753868  C 8.534054487179489 10.562119081106422  8.480769230769232 10.42498827941866  8.48076923076923 10.266526019690575  C 8.480769230769232 10.028832630098453  8.590144230769232 9.849038912330052  8.80889423076923 9.727144866385373  C 9.122996794871796 9.550398499765588  9.336137820512821 9.41631504922644  9.448317307692308 9.324894514767932  C 9.863381410256412 8.995780590717299  10.18729967948718 8.582864510079698  10.420072115384617 8.086146272855133  C 10.652844551282051 7.589428035630567  10.76923076923077 7.060712611345522  10.76923076923077 6.5  C 10.76923076923077 5.939287388654476  10.652844551282051 5.410571964369432  10.420072115384617 4.913853727144866  C 10.18729967948718 4.4171354899203  9.863381410256412 4.004219409282701  9.448317307692308 3.6751054852320673  C 9.336137820512821 3.583684950773559  9.122996794871796 3.449601500234411  8.80889423076923 3.2728551336146268  C 8.590144230769232 3.1509610876699474  8.480769230769232 2.9711673699015475  8.48076923076923 2.7334739803094226  C 8.480769230769232 2.5750117205813394  8.534054487179489 2.437880918893576  8.640625 2.3220815752461323  C 8.747195512820513 2.2062822315986867  8.873397435897438 2.148382559774965  9.01923076923077 2.148382559774965  C 9.092147435897438 2.148382559774965  9.165064102564104 2.163619315518048  9.23798076923077 2.19409282700422  C 10.02323717948718 2.5536802625410213  10.654246794871796 3.128105954055319  11.131009615384617 3.9173699015471164  Z M 12.931490384615383 2.6374824191279886  C 13.64383012820513 3.8107126113455223  14 5.098218471636192  14 6.5  C 14 7.901781528363806  13.64383012820513 9.189287388654474  12.931490384615383 10.362517580872012  C 12.219150641025642 11.535747773089545  11.271233974358974 12.399671823722455  10.087740384615383 12.954289732770745  C 10.014823717948719 12.984763244256914  9.941907051282051 13  9.868990384615383 13  C 9.723157051282051 13  9.59695512820513 12.942100328176277  9.490384615384617 12.826300984528833  C 9.383814102564104 12.710501640881388  9.330528846153847 12.573370839193622  9.330528846153847 12.414908579465541  C 9.330528846153847 12.195499296765119  9.439903846153847 12.015705578996718  9.658653846153847 11.875527426160339  C 9.697916666666668 11.851148616971402  9.76101762820513 11.819151429910924  9.84795673076923 11.779535864978902  C 9.934895833333334 11.739920300046883  9.997996794871796 11.707923112986405  10.037259615384617 11.683544303797468  C 10.295272435897438 11.53117674636662  10.525240384615383 11.375761837787154  10.727163461538462 11.217299578059071  C 11.417067307692308 10.662681669010782  11.955528846153847 9.97093295827473  12.342548076923077 9.142053445850914  C 12.729567307692308 8.313173933427098  12.923076923076923 7.432489451476793  12.923076923076923 6.5  C 12.923076923076923 5.567510548523207  12.729567307692308 4.686826066572903  12.342548076923077 3.857946554149086  C 11.955528846153847 3.0290670417252694  11.417067307692308 2.3373183309892163  10.727163461538462 1.7827004219409281  C 10.525240384615383 1.624238162212845  10.295272435897438 1.468823253633379  10.037259615384617 1.3164556962025316  C 9.997996794871796 1.2920768870135948  9.934895833333334 1.2600796999531165  9.84795673076923 1.2204641350210972  C 9.76101762820513 1.1808485700890752  9.697916666666668 1.148851383028597  9.658653846153847 1.1244725738396633  C 9.439903846153847 0.9842944210032797  9.330528846153847 0.8045007032348798  9.330528846153847 0.5850914205344591  C 9.330528846153847 0.4266291608063745  9.383814102564104 0.289498359118611  9.490384615384617 0.17369901547116717  C 9.59695512820513 0.05789967182372191  9.723157051282051 0  9.868990384615383 0  C 9.941907051282051 0  10.014823717948719 0.01523675574308403  10.087740384615383 0.045710267229254975  C 11.271233974358974 0.6003281762775416  12.219150641025642 1.4642522269104532  12.931490384615383 2.6374824191279886  Z " fill-rule="nonzero" fill="#000000" stroke="none" fill-opacity="0.6470588235294118" transform="matrix(1 0 0 1 654 178 )" />
  </g>
</svg>