<?xml version="1.0" encoding="utf-8"?>
<svg version="1.1" xmlns:xlink="http://www.w3.org/1999/xlink" width="440px" height="32px" xmlns="http://www.w3.org/2000/svg">
  <g transform="matrix(1 0 0 1 -756 -593 )">
    <path d="M 757 597  A 3 3 0 0 1 760 594 L 1192 594  A 3 3 0 0 1 1195 597 L 1195 621  A 3 3 0 0 1 1192 624 L 760 624  A 3 3 0 0 1 757 621 L 757 597  Z " fill-rule="nonzero" fill="#ffffff" stroke="none" />
    <path d="M 756.5 597  A 3.5 3.5 0 0 1 760 593.5 L 1192 593.5  A 3.5 3.5 0 0 1 1195.5 597 L 1195.5 621  A 3.5 3.5 0 0 1 1192 624.5 L 760 624.5  A 3.5 3.5 0 0 1 756.5 621 L 756.5 597  Z " stroke-width="1" stroke-dasharray="9,4" stroke="#d9d9d9" fill="none" stroke-dashoffset="0.5" />
  </g>
</svg>