<?xml version="1.0" encoding="utf-8"?>
<svg version="1.1" xmlns:xlink="http://www.w3.org/1999/xlink" width="803px" height="431px" xmlns="http://www.w3.org/2000/svg">
  <g transform="matrix(1 0 0 1 -1102 -337 )">
    <path d="M 802.5 0  L 0.5 0  L 0.5 428.0123266563942  C 0 429.12542372881296  0.49794920037630097 430  1.131702728127941 430.5  L 800.868297271872 430.5  C 801.5020507996238 430  802 429.12542372881296  802.5 428.0123266563942  L 802.5 0  Z " fill-rule="nonzero" fill="#ffffff" stroke="none" transform="matrix(1 0 0 1 1102 337 )" />
    <path d="M 0.5 0  L 0.5 428.0123266563942  C 0 429.12542372881296  0.49794920037630097 430  1.131702728127941 430.5  L 800.868297271872 430.5  C 801.5020507996238 430  802 429.12542372881296  802.5 428.0123266563942  L 802.5 0  " stroke-width="1" stroke="#e9e9e9" fill="none" transform="matrix(1 0 0 1 1102 337 )" />
  </g>
</svg>