<?xml version="1.0" encoding="utf-8"?>
<svg version="1.1" xmlns:xlink="http://www.w3.org/1999/xlink" width="15px" height="15px" xmlns="http://www.w3.org/2000/svg">
  <g transform="matrix(1 0 0 1 -23 -277 )">
    <path d="M 14 13.713750000000001  C 14.063749995117188 14.303125004882812  13.607499990234377 14.753125004882811  13.011250004882811 14.753125004882811  L 1.6774999951171874 14.753125004882811  C 1.0812499951171874 14.753125004882811  0.6250000048828125 14.303125004882812  0.6250000048828125 13.714375004882811  L 0.6250000048828125 1.0393750048828125  C 0.6250000048828125 0.44999999999999996  1.0812499951171874 0  1.6774999951171874 0  L 13.011250004882813 0  C 13.607500004882812 0  14.063750009765627 0.44999999999999996  14 1.03875  L 14 13.713750000000001  Z M 13.011250004882813 0.6925000048828125  L 1.6774999951171874 0.6925000048828125  C 1.466874990234375 0.6925000048828125  1.3268749951171874 0.8312500048828125  1.3268749951171874 1.03875  L 1.3268749951171874 13.713750000000001  C 1.3268749951171874 13.921875  1.466874990234375 14.060625  1.6774999951171876 14  L 13.011250004882813 14  C 13.221250004882814 14.060625  13.36125 13.921875  13.36125 13.714375004882811  L 13.36125 1.0393750048828125  C 13.36125 0.8312500048828125  13.221250004882814 0.6925000048828125  13.011250004882813 0.6925000048828125  Z " fill-rule="nonzero" fill="#5a5a5a" stroke="none" transform="matrix(1 0 0 1 23 277 )" />
  </g>
</svg>