<?xml version="1.0" encoding="utf-8"?>
<svg version="1.1" xmlns:xlink="http://www.w3.org/1999/xlink" width="852px" height="1081px" xmlns="http://www.w3.org/2000/svg">
  <g transform="matrix(1 0 0 1 -1068 0 )">
    <path d="M 851.5 0  L 0.5 0  L 0.5 1074.8693586698337  C 0 1077.7425178147269  0.6639007092200906 1080  1.5088652482267777 1080.5  L 849.4911347517731 1080.5  C 850.3360992907805 1080  851 1077.7425178147269  851.5 1074.8693586698337  L 851.5 0  Z " fill-rule="nonzero" fill="#ffffff" stroke="none" transform="matrix(1 0 0 1 1068 0 )" />
    <path d="M 0.5 0  L 0.5 1074.8693586698337  C 0 1077.7425178147269  0.6639007092200906 1080  1.5088652482267777 1080.5  L 849.4911347517731 1080.5  C 850.3360992907805 1080  851 1077.7425178147269  851.5 1074.8693586698337  L 851.5 0  " stroke-width="1" stroke="#e9e9e9" fill="none" transform="matrix(1 0 0 1 1068 0 )" />
  </g>
</svg>