<?xml version="1.0" encoding="utf-8"?>
<svg version="1.1" xmlns:xlink="http://www.w3.org/1999/xlink" width="440px" height="32px" xmlns="http://www.w3.org/2000/svg">
  <g transform="matrix(1 0 0 1 -781 -573 )">
    <path d="M 782 577  A 3 3 0 0 1 785 574 L 1217 574  A 3 3 0 0 1 1220 577 L 1220 601  A 3 3 0 0 1 1217 604 L 785 604  A 3 3 0 0 1 782 601 L 782 577  Z " fill-rule="nonzero" fill="#ffffff" stroke="none" />
    <path d="M 781.5 577  A 3.5 3.5 0 0 1 785 573.5 L 1217 573.5  A 3.5 3.5 0 0 1 1220.5 577 L 1220.5 601  A 3.5 3.5 0 0 1 1217 604.5 L 785 604.5  A 3.5 3.5 0 0 1 781.5 601 L 781.5 577  Z " stroke-width="1" stroke-dasharray="9,4" stroke="#d9d9d9" fill="none" stroke-dashoffset="0.5" />
  </g>
</svg>