<?xml version="1.0" encoding="utf-8"?>
<svg version="1.1" xmlns:xlink="http://www.w3.org/1999/xlink" width="15px" height="13px" xmlns="http://www.w3.org/2000/svg">
  <g transform="matrix(1 0 0 1 -23 -89 )">
    <path d="M 14.122886029411767 1.16715625  C 14.122886029411767 0.56875  13.62904411764706 0.08382291666666664  13.019944852941178 0  L 1.1081801470588233 0  C 0.49894301470588237 0.08382291666666664  0.005238970588235232 0.56875  0.005238970588235232 1.16715625  L 0.005238970588235232 8.905270833333331  C 0.005238970588235232 9.503677083333333  0.49894301470588237 9.988604166666665  1.1081801470588233 10  L 13.019944852941178 10  C 13.629044117647059 9.988604166666665  14.122886029411767 9.503677083333333  14.122886029411767 8.905270833333331  L 14.122886029411767 1.16715625  Z M 13.095082720588234 1.81675  L 13.095082720588236 8.255541666666668  C 13.095082720588236 8.611145833333333  12.801562500000001 8.899447916666668  12.43952205882353 8.899447916666668  L 10.34172794117647 8.899447916666668  L 10.34172794117647 5.164927083333334  C 10.34172794117647 4.809322916666667  10.048345588235295 4.521020833333334  9.686167279411764 4.521020833333334  C 9.324126838235296 4.521020833333334  9.030606617647061 4.809322916666667  9.030606617647061 5.164927083333334  L 9.030606617647061 8.899447916666668  L 7.719485294117647 8.899447916666668  L 7.719485294117647 3.8771145833333334  C 7.719485294117647 3.5215104166666666  7.426102941176472 3.2332083333333332  7.063924632352943 3.2332083333333332  C 6.701884191176472 3.2332083333333332  6.408363970588236 3.5215104166666666  6.408363970588236 3.8771145833333334  L 6.408363970588236 8.899447916666668  L 5.097242647058826 8.899447916666668  L 5.097242647058826 6.195177083333333  C 5.097242647058826 5.8395729166666674  4.80386029411765 5.551270833333334  4.44168198529412 5.551270833333334  C 4.079641544117648 5.551270833333334  3.786121323529413 5.8394375  3.786121323529413 6.195177083333333  L 3.786121323529413 8.899447916666668  L 1.6887408088235294 8.899447916666668  C 1.3267003676470588 8.899447916666668  1.0331801470588236 8.611145833333333  1.0331801470588236 8.255541666666668  L 1.0331801470588236 1.8167499999999999  C 1.0331801470588236 1.4611458333333334  1.3267003676470588 1.1728437500000002  1.6887408088235294 1.1728437500000002  L 12.439522058823528 1.1728437500000002  C 12.8015625 1.1728437500000002  13.095082720588234 1.4611458333333334  13.095082720588234 1.81675  Z M 10.59347426470588 11.59803125  C 10.59347426470588 11.256239583333334  10.31125919117647 10.979041666666665  9.96328125 10.979041666666665  L 4.16484375 10.979041666666665  C 3.81672794117647 10.979041666666665  3.534650735294117 11.256239583333334  3.534650735294117 11.59803125  C 3.534650735294117 11.939958333333333  3.8168658088235294 12.217020833333335  4.16484375 12.217020833333335  L 9.96328125 12.217020833333335  C 10.31125919117647 12.217020833333335  10.59347426470588 11.939958333333333  10.59347426470588 11.59803125  Z " fill-rule="nonzero" fill="#1890ff" stroke="none" transform="matrix(1 0 0 1 23 89 )" />
  </g>
</svg>