<?xml version="1.0" encoding="utf-8"?>
<svg version="1.1" xmlns:xlink="http://www.w3.org/1999/xlink" width="398px" height="539px" xmlns="http://www.w3.org/2000/svg">
  <g transform="matrix(1 0 0 1 0 -46 )">
    <path d="M 397.5 0  L 0.5 0  L 0.5 535.5130970724188  C 0 536.9057627118638  0.24649106302916643 538  0.560206961429916 538.5  L 396.4397930385701 538.5  C 396.75350893697083 538  397 536.9057627118638  397.5 535.5130970724188  L 397.5 0  Z " fill-rule="nonzero" fill="#ffffff" stroke="none" transform="matrix(1 0 0 1 0 46 )" />
    <path d="M 0.5 0  L 0.5 535.5130970724188  C 0 536.9057627118638  0.24649106302916643 538  0.560206961429916 538.5  L 396.4397930385701 538.5  C 396.75350893697083 538  397 536.9057627118638  397.5 535.5130970724188  L 397.5 0  " stroke-width="1" stroke="#e9e9e9" fill="none" transform="matrix(1 0 0 1 0 46 )" />
  </g>
</svg>