<?xml version="1.0" encoding="utf-8"?>
<svg version="1.1" xmlns:xlink="http://www.w3.org/1999/xlink" width="12px" height="12px" xmlns="http://www.w3.org/2000/svg">
  <g transform="matrix(1 0 0 1 -1730 -129 )">
    <path d="M 11.37109375 3.9879807692307687  C 11.790364583333332 4.762019230769231  12 5.58653846153846  12 6.461538461538462  C 12 7.211538461538462  11.841145833333332 7.927884615384615  11.5234375 8.610576923076923  C 11.205729166666668 9.293269230769232  10.778645833333334 9.882211538461538  10.2421875 10.377403846153847  C 9.705729166666668 10.872596153846153  9.067708333333334 11.266826923076922  8.328125 11.560096153846153  C 7.588541666666668 11.853365384615385  6.8125 12  6 12  C 5.1875 12  4.411458333333334 11.853365384615385  3.671875 11.560096153846153  C 2.932291666666667 11.266826923076922  2.2942708333333335 10.872596153846153  1.7578125 10.377403846153847  C 1.2213541666666667 9.882211538461538  0.7942708333333335 9.293269230769232  0.47656250000000006 8.610576923076923  C 0.1588541666666667 7.927884615384615  0 7.211538461538462  0 6.461538461538462  C 0 5.58653846153846  0.2096354166666667 4.762019230769231  0.62890625 3.9879807692307687  C 1.0481770833333335 3.2139423076923066  1.6380208333333335 2.5649038461538454  2.3984375 2.040865384615385  C 2.6223958333333335 1.887019230769229  2.87109375 1.8269230769230758  3.14453125 1.8605769230769225  C 3.41796875 1.8942307692307678  3.635416666666667 2.0144230769230758  3.796875 2.2211538461538463  C 3.963541666666667 2.4230769230769225  4.02734375 2.650240384615385  3.98828125 2.9026442307692313  C 3.94921875 3.1550480769230775  3.8203125 3.3581730769230753  3.6015625 3.5120192307692313  C 3.091145833333333 3.867788461538461  2.6966145833333335 4.302884615384614  2.41796875 4.8173076923076925  C 2.139322916666667 5.331730769230768  2 5.879807692307692  2 6.461538461538462  C 2 6.961538461538461  2.10546875 7.4387019230769225  2.31640625 7.893028846153847  C 2.52734375 8.34735576923077  2.8125 8.740384615384615  3.171875 9.072115384615385  C 3.53125 9.403846153846153  3.95703125 9.667067307692307  4.44921875 9.861778846153847  C 4.94140625 10.056490384615385  5.458333333333334 10.153846153846153  6 10.153846153846153  C 6.541666666666668 10.153846153846153  7.05859375 10.056490384615385  7.55078125 9.861778846153847  C 8.04296875 9.667067307692307  8.46875 9.403846153846153  8.828125 9.072115384615385  C 9.1875 8.740384615384615  9.47265625 8.34735576923077  9.68359375 7.893028846153847  C 9.89453125 7.4387019230769225  10 6.961538461538461  10 6.461538461538462  C 10 5.879807692307692  9.860677083333334 5.331730769230768  9.58203125 4.8173076923076925  C 9.303385416666668 4.302884615384614  8.908854166666668 3.867788461538461  8.3984375 3.5120192307692313  C 8.1796875 3.3581730769230753  8.05078125 3.1550480769230775  8.01171875 2.9026442307692313  C 7.97265625 2.650240384615385  8.036458333333334 2.4230769230769225  8.203125 2.2211538461538463  C 8.364583333333334 2.0144230769230758  8.583333333333334 1.8942307692307678  8.859375 1.8605769230769225  C 9.135416666666668 1.8269230769230758  9.3828125 1.887019230769229  9.6015625 2.040865384615385  C 10.361979166666668 2.5649038461538454  10.951822916666668 3.2139423076923066  11.37109375 3.9879807692307687  Z M 6.703125 0.27403846153846123  C 6.901041666666667 0.4567307692307683  7 0.673076923076922  7 0.9230769230769225  L 7 5.538461538461538  C 7 5.788461538461538  6.901041666666667 6.004807692307692  6.703125 6.1875  C 6.505208333333334 6.370192307692307  6.270833333333334 6.461538461538462  6 6.461538461538462  C 5.729166666666667 6.461538461538462  5.494791666666667 6.370192307692307  5.296875 6.1875  C 5.098958333333334 6.004807692307692  5 5.788461538461538  5 5.538461538461538  L 5 0.9230769230769225  C 5 0.673076923076922  5.098958333333334 0.4567307692307683  5.296875 0.27403846153846123  C 5.494791666666667 0.09134615384615419  5.729166666666667 0  6 0  C 6.270833333333334 0  6.505208333333334 0.09134615384615419  6.703125 0.27403846153846123  Z " fill-rule="nonzero" fill="#ffffff" stroke="none" transform="matrix(1 0 0 1 1730 129 )" />
  </g>
</svg>