<?xml version="1.0" encoding="utf-8"?>
<svg version="1.1" xmlns:xlink="http://www.w3.org/1999/xlink" width="19px" height="19px" xmlns="http://www.w3.org/2000/svg">
  <g transform="matrix(1 0 0 1 -1501 -170 )">
    <path d="M 1510.5 171  C 1515.26 171  1519 174.74  1519 179.5  C 1519 184.26  1515.26 188  1510.5 188  C 1505.74 188  1502 184.26  1502 179.5  C 1502 174.74  1505.74 171  1510.5 171  Z " fill-rule="nonzero" fill="#ffffff" stroke="none" />
    <path d="M 1510.5 171  C 1515.26 171  1519 174.74  1519 179.5  C 1519 184.26  1515.26 188  1510.5 188  C 1505.74 188  1502 184.26  1502 179.5  C 1502 174.74  1505.74 171  1510.5 171  Z " stroke-width="2" stroke="#92eae1" fill="none" />
  </g>
</svg>