<?xml version="1.0" encoding="utf-8"?>
<svg version="1.1" xmlns:xlink="http://www.w3.org/1999/xlink" width="27px" height="29px" xmlns="http://www.w3.org/2000/svg">
  <g transform="matrix(1 0 0 1 -1316 -134 )">
    <path d="M 6.7236328125 1.9446614583333321  C 8.7919921875 0.6482204861111086  11.05078125 0  13.5 0  C 15.94921875 0  18.208007812500004 0.6482204861111086  20.2763671875 1.9446614583333321  C 22.3447265625 3.2411024305555527  23.982421875000004 5.000108506944444  25.189453125 7.2216796875  C 26.396484374999996 9.443250868055554  27 11.869357638888886  27 14.5  C 27 17.13064236111111  26.396484374999996 19.55674913194444  25.189453125 21.7783203125  C 23.982421875000004 23.999891493055557  22.3447265625 25.758897569444443  20.2763671875 27.055338541666668  C 18.208007812500004 28.351779513888893  15.94921875 29  13.5 29  C 11.05078125 29  8.7919921875 28.351779513888893  6.7236328125 27.055338541666668  C 4.6552734375 25.758897569444443  3.0175781250000004 23.999891493055557  1.8105468750000002 21.7783203125  C 0.6035156249999999 19.55674913194444  0 17.13064236111111  0 14.5  C 0 11.869357638888886  0.6035156249999999 9.443250868055554  1.8105468750000002 7.2216796875  C 3.0175781250000004 5.000108506944444  4.6552734375 3.2411024305555527  6.7236328125 1.9446614583333321  Z M 10.6875 21.580078125  L 20.25 15.538411458333336  C 20.625 15.311848958333336  20.8125 14.965711805555554  20.8125 14.5  C 20.8125 14.034288194444445  20.625 13.688151041666668  20.25 13.461588541666668  L 10.6875 7.419921875  C 10.324218750000002 7.180772569444444  9.94921875 7.174479166666668  9.5625 7.401041666666668  C 9.187500000000002 7.6401909722222205  9 7.992621527777777  9 8.458333333333332  L 9 20.541666666666664  C 9 21.007378472222218  9.187500000000002 21.359809027777775  9.5625 21.598958333333336  C 9.750000000000002 21.699652777777775  9.9375 21.75  10.125 21.75  C 10.324218750000002 21.75  10.51171875 21.693359375  10.6875 21.580078125  Z " fill-rule="nonzero" fill="#02a7f0" stroke="none" transform="matrix(1 0 0 1 1316 134 )" />
  </g>
</svg>