<?xml version="1.0" encoding="utf-8"?>
<svg version="1.1" xmlns:xlink="http://www.w3.org/1999/xlink" width="21px" height="30px" xmlns="http://www.w3.org/2000/svg">
  <g transform="matrix(1 0 0 1 -1000 -586 )">
    <path d="M 20.653645833333332 11.881009615384615  C 20.884548611111114 12.109374999999998  21 12.379807692307688  21 12.692307692307693  L 21 15  C 21 17.65625  20.103732638888893 19.966947115384617  18.311197916666668 21.932091346153847  C 16.518663194444446 23.897235576923073  14.303819444444445 25.024038461538463  11.666666666666668 25.3125  L 11.666666666666668 27.692307692307693  L 16.333333333333332 27.692307692307693  C 16.649305555555557 27.692307692307693  16.922743055555557 27.806490384615383  17.153645833333332 28.03485576923077  C 17.384548611111114 28.263221153846153  17.500000000000004 28.533653846153847  17.5 28.846153846153847  C 17.500000000000004 29.158653846153847  17.384548611111114 29.429086538461537  17.153645833333332 29.657451923076923  C 16.922743055555557 29.88581730769231  16.649305555555557 30  16.333333333333332 30  L 4.666666666666666 30  C 4.350694444444445 30  4.077256944444445 29.88581730769231  3.8463541666666665 29.657451923076923  C 3.6154513888888884 29.429086538461537  3.5 29.158653846153847  3.5 28.846153846153847  C 3.5 28.533653846153847  3.6154513888888884 28.263221153846153  3.8463541666666665 28.03485576923077  C 4.077256944444445 27.806490384615383  4.350694444444445 27.692307692307693  4.666666666666666 27.692307692307693  L 9.333333333333332 27.692307692307693  L 9.333333333333332 25.3125  C 6.696180555555556 25.024038461538463  4.481336805555556 23.897235576923073  2.6888020833333335 21.932091346153847  C 0.896267361111111 19.966947115384617  0 17.65625  0 15  L 0 12.692307692307693  C 0 12.379807692307688  0.1154513888888889 12.109374999999998  0.3463541666666667 11.881009615384615  C 0.5772569444444444 11.65264423076923  0.8506944444444445 11.538461538461537  1.1666666666666665 11.538461538461537  C 1.482638888888889 11.538461538461537  1.756076388888889 11.65264423076923  1.9869791666666665 11.881009615384615  C 2.2178819444444446 12.109374999999998  2.333333333333333 12.379807692307688  2.333333333333333 12.692307692307693  L 2.333333333333333 15  C 2.333333333333333 17.22355769230769  3.1323784722222228 19.12560096153846  4.73046875 20.706129807692307  C 6.328559027777779 22.28665865384615  8.25173611111111 23.076923076923073  10.5 23.076923076923073  C 12.74826388888889 23.076923076923073  14.671440972222221 22.28665865384615  16.26953125 20.706129807692307  C 17.86762152777778 19.12560096153846  18.666666666666664 17.22355769230769  18.666666666666664 15  L 18.666666666666664 12.692307692307693  C 18.666666666666664 12.379807692307688  18.782118055555557 12.109374999999998  19.013020833333332 11.881009615384615  C 19.243923611111114 11.65264423076923  19.517361111111114 11.538461538461537  19.833333333333332 11.538461538461537  C 20.14930555555556 11.538461538461537  20.422743055555557 11.65264423076923  20.653645833333332 11.881009615384615  Z M 14.619791666666668 1.6947115384615374  C 15.762152777777779 2.824519230769229  16.333333333333332 4.182692307692307  16.333333333333332 5.769230769230768  L 16.333333333333332 15  C 16.333333333333332 16.586538461538463  15.762152777777779 17.944711538461537  14.619791666666668 19.07451923076923  C 13.477430555555557 20.204326923076923  12.104166666666666 20.76923076923077  10.5 20.76923076923077  C 8.895833333333334 20.76923076923077  7.522569444444446 20.204326923076923  6.380208333333333 19.07451923076923  C 5.237847222222223 17.944711538461537  4.666666666666666 16.586538461538463  4.666666666666666 15  L 4.666666666666666 5.769230769230768  C 4.666666666666666 4.182692307692307  5.237847222222223 2.824519230769229  6.380208333333333 1.6947115384615374  C 7.522569444444446 0.5649038461538491  8.895833333333334 0  10.5 0  C 12.104166666666666 0  13.477430555555557 0.5649038461538491  14.619791666666668 1.6947115384615374  Z " fill-rule="nonzero" fill="#000000" stroke="none" transform="matrix(1 0 0 1 1000 586 )" />
  </g>
</svg>