<?xml version="1.0" encoding="utf-8"?>
<svg version="1.1" xmlns:xlink="http://www.w3.org/1999/xlink" width="10px" height="10px" xmlns="http://www.w3.org/2000/svg">
  <g transform="matrix(1 0 0 1 -27 -97 )">
    <path d="M 32 98  C 34.24 98  36 99.76  36 102  C 36 104.24  34.24 106  32 106  C 29.759999999999998 106  28 104.24  28 102  C 28 99.76  29.759999999999998 98  32 98  Z " fill-rule="nonzero" fill="#ffffff" stroke="none" />
    <path d="M 32 98  C 34.24 98  36 99.76  36 102  C 36 104.24  34.24 106  32 106  C 29.759999999999998 106  28 104.24  28 102  C 28 99.76  29.759999999999998 98  32 98  Z " stroke-width="2" stroke="#1890ff" fill="none" />
  </g>
</svg>