<?xml version="1.0" encoding="utf-8"?>
<svg version="1.1" xmlns:xlink="http://www.w3.org/1999/xlink" width="19px" height="19px" xmlns="http://www.w3.org/2000/svg">
  <g transform="matrix(1 0 0 1 -14 -63 )">
    <path d="M 23.5 64  C 28.259999999999998 64  32 67.74  32 72.5  C 32 77.26  28.259999999999998 81  23.5 81  C 18.74 81  15 77.26  15 72.5  C 15 67.74  18.74 64  23.5 64  Z " fill-rule="nonzero" fill="#ffffff" stroke="none" />
    <path d="M 23.5 64  C 28.259999999999998 64  32 67.74  32 72.5  C 32 77.26  28.259999999999998 81  23.5 81  C 18.74 81  15 77.26  15 72.5  C 15 67.74  18.74 64  23.5 64  Z " stroke-width="2" stroke="#92eae1" fill="none" />
  </g>
</svg>