<?xml version="1.0" encoding="utf-8"?>
<svg version="1.1" xmlns:xlink="http://www.w3.org/1999/xlink" width="10px" height="10px" xmlns="http://www.w3.org/2000/svg">
  <g transform="matrix(1 0 0 1 -27 -222 )">
    <path d="M 32 223  C 34.24 223  36 224.76  36 227  C 36 229.24  34.24 231  32 231  C 29.759999999999998 231  28 229.24  28 227  C 28 224.76  29.759999999999998 223  32 223  Z " fill-rule="nonzero" fill="#ffffff" stroke="none" />
    <path d="M 32 223  C 34.24 223  36 224.76  36 227  C 36 229.24  34.24 231  32 231  C 29.759999999999998 231  28 229.24  28 227  C 28 224.76  29.759999999999998 223  32 223  Z " stroke-width="2" stroke="#d9d9d9" fill="none" />
  </g>
</svg>