<?xml version="1.0" encoding="utf-8"?>
<svg version="1.1" xmlns:xlink="http://www.w3.org/1999/xlink" width="10px" height="10px" xmlns="http://www.w3.org/2000/svg">
  <g transform="matrix(1 0 0 1 -27 -265 )">
    <path d="M 32 266  C 34.24 266  36 267.76  36 270  C 36 272.24  34.24 274  32 274  C 29.759999999999998 274  28 272.24  28 270  C 28 267.76  29.759999999999998 266  32 266  Z " fill-rule="nonzero" fill="#ffffff" stroke="none" />
    <path d="M 32 266  C 34.24 266  36 267.76  36 270  C 36 272.24  34.24 274  32 274  C 29.759999999999998 274  28 272.24  28 270  C 28 267.76  29.759999999999998 266  32 266  Z " stroke-width="2" stroke="#d9001b" fill="none" />
  </g>
</svg>