<?xml version="1.0" encoding="utf-8"?>
<svg version="1.1" xmlns:xlink="http://www.w3.org/1999/xlink" width="7px" height="7px" xmlns="http://www.w3.org/2000/svg">
  <g transform="matrix(1 0 0 1 -27 -808 )">
    <path d="M 5.3164534326171875 1.7032281933593705  C 4.824322109375 1.2164032812499999  4.170765224609374 0.9482950537109378  3.47624111328125 0.9482950537109378  C 2.040544516601562 0.9482950537109378  0.8725064404296878 2.103217021484375  0.8725064404296878 3.5227995458984362  C 0.8725064404296878 4.942442026367187  2.040544516601562 6.0974539355468735  3.47624111328125 6.0974539355468735  C 3.6159463964843743 6.0974539355468735  3.763656245117187 6.083123647460935  3.942020322265625 6.052214609374998  C 4.208569604492187 6.004142202148435  4.385734487304687 5.751353588867186  4.336987534179686 5.488671684570312  C 4.294146582031249 5.258217939453123  4.092458325195313 5.090931347656248  3.8572827734374995 5.090931347656248  C 3.8269433398437482 5.090931347656248  3.7963490820312487 5.093809399414059  3.767583593749999 5.099190751953124  C 3.651307431640625 5.119741821289061  3.559089951171875 5.12932031738281  3.4774403076171865 5.12932031738281  C 2.5815427197265617 5.12932031738281  1.8527068701171867 4.4085939746093725  1.8527068701171867 3.522799531249998  C 1.8527068701171867 2.637050073242184  2.5804334667968734 1.91642865722656  3.4749819628906238 1.91642865722656  C 4.370249975585937 1.91642865722656  5.098501220703124 2.637050073242184  5.098501220703124 3.522799531249998  C 5.098501220703124 3.6091110107421853  5.088877739257811 3.6997995312499974  5.067906962890625 3.8089105419921845  C 5.019160009765624 4.071532490234372  5.196369863281248 4.3243810595703085  5.462814218749999 4.372348525390622  C 5.492209282226563 4.377624951171871  5.522069038085936 4.380353105468746  5.5517339257812495 4.380353105468746  C 5.789097998046875 4.380353105468746  5.991475786132812 4.21291663085937  6.032682836914061 3.983137416992184  C 6.064011596679686 3.8153861474609334  6.078656665039061 3.6691453027343712  6.078656665039061 3.5229044580078077  C 6.079286240234373 2.836279985351558  5.808599770507811 2.1900381347656204  5.3164534326171875 1.7032281933593705  Z " fill-rule="nonzero" fill="#5a5a5a" stroke="none" transform="matrix(1 0 0 1 27 808 )" />
  </g>
</svg>