<?xml version="1.0" encoding="utf-8"?>
<svg version="1.1" xmlns:xlink="http://www.w3.org/1999/xlink" width="19px" height="19px" xmlns="http://www.w3.org/2000/svg">
  <g transform="matrix(1 0 0 1 -14 -169 )">
    <path d="M 23.5 170  C 28.259999999999998 170  32 173.74  32 178.5  C 32 183.26  28.259999999999998 187  23.5 187  C 18.74 187  15 183.26  15 178.5  C 15 173.74  18.74 170  23.5 170  Z " fill-rule="nonzero" fill="#ffffff" stroke="none" />
    <path d="M 23.5 170  C 28.259999999999998 170  32 173.74  32 178.5  C 32 183.26  28.259999999999998 187  23.5 187  C 18.74 187  15 183.26  15 178.5  C 15 173.74  18.74 170  23.5 170  Z " stroke-width="2" stroke="#d9001b" fill="none" />
  </g>
</svg>