<?xml version="1.0" encoding="utf-8"?>
<svg version="1.1" xmlns:xlink="http://www.w3.org/1999/xlink" width="19px" height="19px" xmlns="http://www.w3.org/2000/svg">
  <g transform="matrix(1 0 0 1 -1501 -326 )">
    <path d="M 1510.5 327  C 1515.26 327  1519 330.74  1519 335.5  C 1519 340.26  1515.26 344  1510.5 344  C 1505.74 344  1502 340.26  1502 335.5  C 1502 330.74  1505.74 327  1510.5 327  Z " fill-rule="nonzero" fill="#ffffff" stroke="none" />
    <path d="M 1510.5 327  C 1515.26 327  1519 330.74  1519 335.5  C 1519 340.26  1515.26 344  1510.5 344  C 1505.74 344  1502 340.26  1502 335.5  C 1502 330.74  1505.74 327  1510.5 327  Z " stroke-width="2" stroke="#333333" fill="none" />
  </g>
</svg>