<?xml version="1.0" encoding="utf-8"?>
<svg version="1.1" xmlns:xlink="http://www.w3.org/1999/xlink" width="19px" height="19px" xmlns="http://www.w3.org/2000/svg">
  <g transform="matrix(1 0 0 1 -14 -140 )">
    <path d="M 23.5 141  C 28.259999999999998 141  32 144.74  32 149.5  C 32 154.26  28.259999999999998 158  23.5 158  C 18.74 158  15 154.26  15 149.5  C 15 144.74  18.74 141  23.5 141  Z " fill-rule="nonzero" fill="#ffffff" stroke="none" />
    <path d="M 23.5 141  C 28.259999999999998 141  32 144.74  32 149.5  C 32 154.26  28.259999999999998 158  23.5 158  C 18.74 158  15 154.26  15 149.5  C 15 144.74  18.74 141  23.5 141  Z " stroke-width="2" stroke="#52c41a" fill="none" />
  </g>
</svg>