<?xml version="1.0" encoding="utf-8"?>
<svg version="1.1" xmlns:xlink="http://www.w3.org/1999/xlink" width="19px" height="19px" xmlns="http://www.w3.org/2000/svg">
  <g transform="matrix(1 0 0 1 -14 -219 )">
    <path d="M 23.5 220  C 28.259999999999998 220  32 223.74  32 228.5  C 32 233.26  28.259999999999998 237  23.5 237  C 18.74 237  15 233.26  15 228.5  C 15 223.74  18.74 220  23.5 220  Z " fill-rule="nonzero" fill="#ffffff" stroke="none" />
    <path d="M 23.5 220  C 28.259999999999998 220  32 223.74  32 228.5  C 32 233.26  28.259999999999998 237  23.5 237  C 18.74 237  15 233.26  15 228.5  C 15 223.74  18.74 220  23.5 220  Z " stroke-width="2" stroke="#333333" fill="none" />
  </g>
</svg>