<?xml version="1.0" encoding="utf-8"?>
<svg version="1.1" xmlns:xlink="http://www.w3.org/1999/xlink" width="19px" height="19px" xmlns="http://www.w3.org/2000/svg">
  <g transform="matrix(1 0 0 1 -1501 -418 )">
    <path d="M 1510.5 419  C 1515.26 419  1519 422.74  1519 427.5  C 1519 432.26  1515.26 436  1510.5 436  C 1505.74 436  1502 432.26  1502 427.5  C 1502 422.74  1505.74 419  1510.5 419  Z " fill-rule="nonzero" fill="#ffffff" stroke="none" />
    <path d="M 1510.5 419  C 1515.26 419  1519 422.74  1519 427.5  C 1519 432.26  1515.26 436  1510.5 436  C 1505.74 436  1502 432.26  1502 427.5  C 1502 422.74  1505.74 419  1510.5 419  Z " stroke-width="2" stroke="#d9001b" fill="none" />
  </g>
</svg>