<?xml version="1.0" encoding="utf-8"?>
<svg version="1.1" xmlns:xlink="http://www.w3.org/1999/xlink" width="13px" height="13px" xmlns="http://www.w3.org/2000/svg">
  <g transform="matrix(1 0 0 1 -24 -853 )">
    <path d="M 12.862436284179692 6.5240287109374995  C 12.86243626953125 6.136301591796875  12.823687534179689 5.737781782226563  12.747209389648438 5.339831591796875  C 12.715191098632813 5.172455073242188  12.58552900390625 5.039540190429688  12.416683481445313 5.001151220703125  C 11.802774716796876 4.861865659179688  11.291951049804688 4.489488125  10.978423627929688 3.953046831054688  C 10.665900517578125 3.417489936523438  10.594758754882815 2.7943624121093746  10.777889594726563 2.1994907421875  C 10.829574555664063 2.036551220703125  10.777994521484375 1.8591314990234376  10.646758496093751 1.747727041015625  C 10.033569233398438 1.2244618115234371  9.335192744140627 0.8257771191406248  8.57114575683594 0.5628853613281246  C 8.524962075195313 0.5469361718749997  8.476844697265626 0.5388716357421872  8.427932861328127 0.5388716357421872  C 8.306994863281252 0.5388716357421872  8.190883583984379 0.5891325634765623  8.109698618164066 0.6762235156249996  C 7.681423994140626 1.1309701953124995  7.10128731933594 1.3814054052734375  6.476241098632815 1.3814054052734375  C 5.851134921875002 1.3814054052734375  5.270593525390628 1.1305504882812496  4.84135954589844 0.6749044091796874  C 4.725967783203128 0.5528271728515624  4.540918247070315 0.5062687402343748  4.378758183593753 0.5617161523437499  C 3.609959433593753 0.8279056689453124  2.9119876513671907 1.2269950976562498  2.3039399169921904 1.748071806640625  C 2.1748024707031277 1.859281411132812  2.123432304687503 2.0354869384765624  2.1730636572265656 2.197377177734375  C 2.357438647460941 2.79277349609375  2.286731591796878 3.415841064453125  1.9738787011718784 3.9519825488281253  C 1.6617753125000039 4.488064091796875  1.1513713671875032 4.8602767285156245  0.5357837304687532 5.000251821289062  C 0.36672835449219066 5.039944912109375  0.23700630371094067 5.173279501953125  0.20531779296875308 5.33960673828125  C 0.12873472167969058 5.737601899414062  0.08992603027344082 6.135701987304687  0.08992603027344082 6.522769560546875  C 0.08992603027344082 6.909882104492187  0.12873472167969058 7.307982192382811  0.20525783691406563 7.7058274414062495  C 0.2371112451171906 7.872994106445313  0.36672835449219066 8.005953959960937  0.5356188476562531 8.044507812500001  C 1.1495875830078157 8.183853330078126  1.6604112353515657 8.556065981445313  1.973983642578128 9.092567231445312  C 2.2867166064453155 9.628603803710938  2.357438662109378 10.251671357421875  2.1729587304687534 10.847382470703124  C 2.1236871435546907 11.008073515624998  2.1747425146484405 11.184488911132812  2.3044046093750037 11.2979469921875  C 2.9174289746093787 11.821002353515626  3.615355786132816 12.21962708984375  4.379537670898441 12.483043496093751  C 4.547498793945316 12.539959912109376  4.727271904296878 12.491093032226564  4.840295278320316 12.37052978515625  C 5.269469301757816 11.915093574218751  5.849950727539066 11.664238657226564  6.474966977539066 11.664238657226564  C 7.099983227539067 11.664238657226564  7.68056958007813 11.915093574218751  8.109158999023443 12.370050122070314  C 8.19055381835938 12.457290971679688  8.306829980468754 12.507461958007813  8.428232670898442 12.507461958007813  C 8.476245122070317 12.507461958007813  8.524002734375005 12.49983212890625  8.572225039062504 12.484032836914063  C 9.335792333984381 12.220826284179687  10.033764116210943 11.822156591796876  10.647208203125006 11.298786435546877  C 10.775985898437504 11.187786699218751  10.827505961914067 11.011266376953126  10.77818940429688 10.8482219140625  C 10.593649516601566 10.25234591796875  10.664731323242192 9.629383291015625  10.978468613281256 9.093721469726562  C 11.29084182617188 8.557220219726563  11.801605522460942 8.1850675390625  12.41683340820313 8.04566205078125  C 12.583685278320317 8.007692788085938  12.71325743164063 7.87524259765625  12.747149448242194 7.707191533203123  C 12.823672563476567 7.308986518554689  12.862436284179692 6.910931401367188  12.862436284179692 6.5240287109374995  Z M 10.005568232421876 8.539951909179686  C 9.64713125 9.154145483398437  9.529970673828124 9.871933833007812  9.672449082031251 10.570490205078125  C 9.291197568359374 10.865760004882812  8.870642700195312 11.105942172851563  8.420198105468751 11.28561035644531  C 7.882857426757814 10.814749604492187  7.1955584082031265 10.556414755859373  6.474996948242189 10.556414755859373  C 5.758302866210939 10.556414755859373  5.071108789062501 10.814749604492187  4.530155556640626 11.285715283203123  C 4.079800903320313 11.106092070312497  3.659201064453126 10.86595488769531  3.2778446240234382 10.570685073242187  C 3.422781362304688 9.875741240234372  3.305515859375001 9.157847978515623  2.944395708007814 8.540011865234373  C 2.5862585205078137 7.9252636572265605  2.0152806494140636 7.465705244140624  1.3303350341796887 7.238639199218749  C 1.2954536767578135 6.999236518554686  1.2778256298828135 6.758784541015623  1.2778256298828135 6.5227845458984355  C 1.2778256298828135 6.287773876953124  1.2954536767578135 6.047426840820312  1.3303350341796887 5.807184716796874  C 2.0131370996093763 5.581752558593749  2.5840100439453138 5.122239116210936  2.944395708007814 4.505662153320311  C 3.3036271484375006 3.890074516601561  3.420847680664063 3.1721662695312487  3.277634770507814 2.475093872070311  C 3.658841313476565 2.179928999023436  4.079426152343752 1.9397918017578113  4.529990673828126 1.7600186914062483  C 5.069369975585939 2.2317188720703114  5.756624023437502 2.4904134863281233  6.474981962890626 2.4904134863281233  C 7.195603378906252 2.4904134863281233  7.882842426757814 2.232078637695311  8.420183120117189 1.761217885742186  C 8.87064271484375 1.9409460253906239  9.29113761230469 2.181083222656248  9.672344155273437 2.476248095703123  C 9.528651582031252 3.174010009765623  9.645452392578125 3.8917983593749987  10.004384038085938 4.5068163769531235  C 10.36247625488281 5.121564584960936  10.933334213867187 5.581182954101561  11.618384741210939 5.808338940429685  C 11.653266098632812 6.048371196289061  11.670894145507813 6.288823173828123  11.670894145507813 6.525242875976561  C 11.672992724609376 6.751469492187499  11.655784384765626 6.991022084960936  11.619628906250002 7.238639199218749  C 10.93462333496094 7.465750214843748  10.363705419921876 7.925263671874998  10.005568232421876 8.539951909179686  Z " fill-rule="nonzero" fill="#5a5a5a" stroke="none" transform="matrix(1 0 0 1 24 853 )" />
  </g>
</svg>