<?xml version="1.0" encoding="utf-8"?>
<svg version="1.1" xmlns:xlink="http://www.w3.org/1999/xlink" width="13px" height="13px" xmlns="http://www.w3.org/2000/svg">
  <g transform="matrix(1 0 0 1 -24 -661 )">
    <path d="M 3.5875000097656238 3.065833334960937  C 3.587499995117188 3.3358333349609373  3.8049999951171887 3.5533333349609375  4.07416666015625 3.5533333349609375  C 4.343333325195312 3.5533333349609375  4.560833325195312 3.3358333349609373  4.560833325195312 3.066666669921875  L 4.56083333984375 1.1183333398437503  C 4.56083333984375 0.8491666748046877  4.342500004882812 0.6316666748046875  4.074166674804687 0.6316666748046875  C 3.8050000097656245 0.6316666748046875  3.5875000097656238 0.8491666748046877  3.5875000097656238 1.1183333398437503  L 3.5875000097656238 3.065833334960937  Z M 6.021666669921875 3.065833334960937  C 6.021666669921875 3.3358333349609373  6.240000004882813 3.5533333349609375  6.508333334960938 3.5533333349609375  C 6.777499999999999 3.5533333349609375  6.995000000000001 3.3358333349609373  6.995000000000001 3.066666669921875  L 6.995000000000001 1.1183333398437503  C 6.995000000000001 0.8491666748046877  6.777500000000001 0.6316666748046875  6.508333334960938 0.6316666748046875  C 6.239166669921875 0.6316666748046875  6.021666669921875 0.8500000097656251  6.021666669921875 1.1183333398437503  L 6.021666669921875 3.065833334960937  Z M 5.04833333984375 2.5383333300781254  L 5.04833333984375 1.5650000000000004  L 5.535000004882813 1.5650000000000004  L 5.535000004882813 2.5383333300781254  L 5.04833333984375 2.5383333300781254  Z M 7.483333334960936 2.5383333300781254  L 7.483333334960936 1.5650000000000004  L 7.969999999999999 1.5650000000000004  L 7.969999999999999 2.5383333300781254  L 7.483333334960936 2.5383333300781254  Z M 12.35 10.881666669921874  L 12.35 2.973333330078125  C 12.351666669921876 2.1658333349609373  11.695833330078125 1.5124999999999997  10.890000004882813 1.5124999999999997  L 9.91666666015625 1.5125000000000002  L 9.91666666015625 2.4858333300781252  L 10.889999990234376 2.4858333300781252  C 11.1583333203125 2.4858333300781252  11.378333325195314 2.704166665039063  11.378333325195314 2.9724999951171878  L 11.378333325195314 10.881666655273438  C 11.378333325195314 11.149999985351563  11.1583333203125 11.369166655273439  10.889999990234376 11.369166655273439  L 2.1266666650390627 11.369166669921876  C 1.8591666699218747 11.369166669921876  1.6399999999999995 11.15  1.6399999999999995 10.881666669921875  L 1.6324999999999998 10.881666669921874  L 1.6399999999999995 2.973333330078125  C 1.6399999999999995 2.705  1.858333334960937 2.486666665039062  2.1266666650390627 2.486666665039062  L 3.0999999951171873 2.4866666650390625  L 3.0999999951171873 1.5125000000000002  L 2.1266666650390627 1.5125000000000002  C 1.32083333984375 1.5125000000000002  0.6666666699218751 2.1658333349609378  0.6666666699218751 2.973333330078125  L 0.6666666699218751 10.881666669921874  C 0.6666666699218751 11.690833334960937  1.32083333984375 12.3425  2.1266666650390627 12.3425  L 10.890000004882813 12.3425  C 11.672500009765626 12.3425  12.305833334960939 11.728333334960936  12.344166669921876 10.954166665039063  C 12.345000004882813 10.950000004882812  12.350000000000001 10.944999995117188  12.350000000000001 10.940833334960937  L 12.350000000000001 10.897500004882813  C 12.350000000000001 10.891666674804688  12.351666669921878 10.886666665039062  12.351666669921878 10.880833334960938  L 12.35 10.880833334960938  Z M 8.456666665039062 3.065833334960937  C 8.456666665039062 3.3358333349609373  8.672499995117189 3.5533333349609375  8.943333330078126 3.5533333349609375  C 9.21166666015625 3.5533333349609375  9.429999995117187 3.3358333349609373  9.429999995117187 3.066666669921875  L 9.429999995117187 1.1183333398437503  C 9.429999995117187 0.8491666748046877  9.21166666015625 0.6316666748046875  8.943333330078126 0.6316666748046875  C 8.675 0.6316666748046875  8.456666665039062 0.8491666748046877  8.456666665039062 1.1183333398437503  L 8.456666665039062 3.065833334960937  Z M 3.092499995117187 5.021666665039063  C 3.092499995117187 5.289999995117188  3.3099999951171872 5.508333330078124  3.5791666601562504 5.508333330078124  L 9.42166666015625 5.508333330078124  C 9.6883333203125 5.508333330078124  9.908333325195313 5.289999995117187  9.908333325195313 5.021666665039062  C 9.908333325195313 4.7524999999999995  9.6883333203125 4.534999999999999  9.42166666015625 4.534999999999999  L 3.5791666601562504 4.535  C 3.3099999951171872 4.535  3.092499995117187 4.7525  3.092499995117187 5.021666665039063  Z M 9.908333325195313 7.424166669921876  C 9.908333325195313 7.155833339843751  9.688333334960937 6.937500004882812  9.42166666015625 6.937500004882812  L 3.5791666601562504 6.937500004882812  C 3.3099999951171872 6.937500004882812  3.092499995117187 7.155833339843751  3.092499995117187 7.424166669921876  C 3.092499995117187 7.692500000000001  3.3099999951171872 7.9108333349609365  3.5791666601562504 7.9108333349609365  L 9.42166666015625 7.9108333349609365  C 9.6883333203125 7.9108333349609365  9.908333325195313 7.692500000000001  9.908333325195313 7.424166669921876  Z M 9.908333325195313 9.919166665039063  C 9.90833333984375 9.651666669921875  9.688333334960937 9.434166669921876  9.42166666015625 9.434166669921876  L 3.5791666601562504 9.434166669921876  C 3.3099999951171872 9.434166669921876  3.092499995117187 9.652500004882814  3.092499995117187 9.919166665039063  C 3.092499995117187 10.188333330078125  3.3099999951171872 10.4075  3.5791666601562504 10.4075  L 9.42166666015625 10.4075  C 9.6883333203125 10.4075  9.908333325195313 10.188333330078127  9.908333325195313 9.919166665039063  Z " fill-rule="nonzero" fill="#5a5a5a" stroke="none" transform="matrix(1 0 0 1 24 661 )" />
  </g>
</svg>