<?xml version="1.0" encoding="utf-8"?>
<svg version="1.1" xmlns:xlink="http://www.w3.org/1999/xlink" width="15px" height="11px" xmlns="http://www.w3.org/2000/svg">
  <g transform="matrix(1 0 0 1 -23 -611 )">
    <path d="M 9.20068359375 1.1874999999999991  L 12.75 1.1875  C 12.95654296875 1.1875  13.125 1.35595703125  13.125 1.5625000000000002  L 13.125 9.4375  C 13.125 9.64404296875  12.95654296875 9.8125  12.75 9.8125  L 2.25 9.8125  C 2.04345703125 9.8125  1.875 9.64404296875  1.875 9.4375  L 1.875 2.874999999999999  C 1.875 2.668457031249999  2.04345703125 2.499999999999999  2.25 2.499999999999999  L 7.88818359375 2.499999999999999  L 8.162109375 2.226074218749999  L 9.20068359375 1.1874999999999991  Z M 14.0625 1.5625000000000002  C 14.0625 0.83740234375  13.47509765625 0.25  12.750000000000002 0.24999999999999914  L 9.0849609375 0.24999999999999914  C 8.910644531250002 0.24999999999999914  8.743652343750002 0.3188476562499991  8.62060546875 0.4418945312499991  L 7.5 1.5625000000000002  L 2.25 1.5625000000000002  C 1.52490234375 1.5625000000000002  0.9375 2.14990234375  0.9375 2.874999999999999  L 0.9375 9.4375  C 0.9375 10.16259765625  1.52490234375 10.75  2.25 10.75  L 12.75 10.75  C 13.47509765625 10.75  14.0625 10.16259765625  14.0625 9.4375  L 14.0625 1.5625000000000002  Z " fill-rule="nonzero" fill="#5a5a5a" stroke="none" transform="matrix(1 0 0 1 23 611 )" />
  </g>
</svg>