<?xml version="1.0" encoding="utf-8"?>
<svg version="1.1" xmlns:xlink="http://www.w3.org/1999/xlink" width="10px" height="9px" xmlns="http://www.w3.org/2000/svg">
  <g transform="matrix(1 0 0 1 -25 -328 )">
    <path d="M 7.372500002441408 7.022673273514412  C 7.041987314104489 7.022673273514412  6.768372187852076 7.279522023799128  6.747500004882813 7.609375004882812  C 6.768372187852076 7.939227985966495  7.041987314104491 8.19607673625121  7.372500002441408 8.19607673625121  C 7.7030126907783245 8.19607673625121  7.976627817030739 7.939227985966495  7.997500000000002 7.609375004882812  C 7.976627817030739 7.279522023799128  7.703012690778323 7.022673273514412  7.372500002441408 7.022673273514412  Z M 7.372500002441408 3.897673263748789  C 7.041987314104491 3.897673263748789  6.768372187852076 4.154522014033503  6.747500004882813 4.484374995117187  C 6.768372187852076 4.814227976200871  7.041987314104491 5.071076726485586  7.372500002441408 5.071076726485586  C 7.703012690778323 5.071076726485586  7.976627817030739 4.814227976200871  7.997500000000002 4.484374995117187  C 7.976627817030739 4.154522014033503  7.703012690778323 3.897673263748789  7.372500002441408 3.897673263748789  Z M 5.497500002441407 6.985720678312479  C 5.152359397120321 6.985720678312479  4.872552843531907 7.265484398723531  4.872500004882813 7.610625000000001  C 4.872499997558593 7.95589865453624  5.152322031100457 8.235720688078104  5.497500002441407 8.235720688078104  C 5.842677973782355 8.235720688078104  6.12250000732422 7.95589865453624  6.12250000732422 7.610720683195291  C 6.122447161350905 7.265484398723531  5.842640607762492 6.985720678312479  5.497500002441407 6.985720678312479  Z M 5.497500002441407 3.860720683195291  C 5.152359397120321 3.860720683195291  4.872552843531907 4.140484403606343  4.872500004882813 4.485625004882812  C 4.872499997558593 4.830898659419051  5.152322031100457 5.110720692960916  5.497500002441407 5.110720692960916  C 5.842677973782355 5.110720692960916  6.12250000732422 4.830898659419051  6.12250000732422 4.485720688078103  C 6.122447161350905 4.140484403606343  5.842640607762492 3.860720683195291  5.497500002441407 3.860720683195291  Z M 0.4974999999999996 6.360625004882811  L 0.49750000000000005 5.735624999999999  L 9.8725 5.735624999999999  L 9.8725 6.360625004882811  L 0.4974999999999996 6.360625004882811  Z M 9.059999995117186 3.548125004882813  L 9.059999995117186 0.4231249951171878  L 1.5599999951171868 0.4231249951171878  L 1.5599999951171868 3.548125004882813  L 9.059999995117186 3.548125004882813  Z M 2.1849999999999996 1.0481250000000006  L 8.435000004882813 1.0481250000000006  L 8.435000004882813 2.9231250000000006  L 2.1849999999999996 2.9231250000000006  L 2.1849999999999996 1.0481250000000006  Z " fill-rule="nonzero" fill="#5a5a5a" stroke="none" transform="matrix(1 0 0 1 25 328 )" />
  </g>
</svg>