<?xml version="1.0" encoding="utf-8"?>
<svg version="1.1" xmlns:xlink="http://www.w3.org/1999/xlink" width="11px" height="13px" xmlns="http://www.w3.org/2000/svg">
  <g transform="matrix(1 0 0 1 -25 -326 )">
    <path d="M 10.573124995117187 10.885625  C 10.567283081635953 11.540399971760255  10.033546505542475 12.067433419739528  9.378749995117188 12.065  L 1.255 12.065  C 0.5774999951171877 12.065  0.05999999511718768 11.553750004882811  0.05999999511718768 10.885625000000001  L 0.05999999511718768 1.7274999951171874  C 0.05999999511718768 1.0593749902343745  0.5774999951171877 0.5481249951171874  1.255 0.5481249951171874  L 9.378749995117186 0.5481249951171874  C 10.055624995117187 0.5481249951171874  10.573124995117187 1.0593749902343745  10.573124995117187 1.7274999951171874  L 10.573124995117187 10.885625  Z M 9.378749995117186 1.3343749999999996  L 1.255 1.334375  C 1.0156250048828124 1.334375  0.8562500048828127 1.4918750000000003  0.8562500048828127 1.7281250000000004  L 0.8562500048828127 10.885625000000001  C 0.8562500048828127 11.121875000000001  1.0156250048828124 11.279375  1.2550000000000003 11.279375  L 9.378749995117186 11.279375  C 9.6175 11.279375  9.776874999999999 11.121875000000001  9.776874999999999 10.885625000000001  L 9.776874999999999 1.7274999951171874  C 9.776874999999999 1.4918749999999998  9.6175 1.3343749999999996  9.378749995117186 1.3343749999999996  Z " fill-rule="nonzero" fill="#5a5a5a" stroke="none" transform="matrix(1 0 0 1 25 326 )" />
  </g>
</svg>