<?xml version="1.0" encoding="utf-8"?>
<svg version="1.1" xmlns:xlink="http://www.w3.org/1999/xlink" width="15px" height="15px" xmlns="http://www.w3.org/2000/svg">
  <g transform="matrix(1 0 0 1 -23 -139 )">
    <path d="M 11 1.2499999951171874  C 10.937499990234375 0.999999990234375  10.81249999511719 0.8124999902343749  10.624999995117188 0.6874999951171875  C 10.43749999511719 0.5625  10.187499990234375 0.5625  10.000000004882814 0.6874999951171875  L 4.249999995117188 3.75  L 0.6250000048828125 3.75  C 0.25000000488281243 3.75  0 4.000000004882812  0 4.375000004882812  L 0 10.624999995117188  C 0 10.999999995117188  0.2500000048828125 11.25  0.6250000048828125 11.25  L 4.249999995117188 11.25  L 10.062499995117186 14.312500004882814  C 10.124999999999998 14.375000009765627  10.249999995117186 14.375000009765627  10.375000004882812 14.37499999511719  C 10.500000014648439 14.374999980468749  10.625000009765625 14.37499999511719  10.6875 14.312500004882814  C 10.875 14.187500009765627  10.999999995117188 14.000000009765627  11 13.750000004882814  L 11 1.2499999951171874  Z M 3.75 4.999999995117188  L 3.75 10.000000004882812  L 1.2499999951171874 10.000000004882812  L 1.2499999951171874 4.999999995117188  L 3.75 4.999999995117188  Z M 9.687499995117188 2.3125000048828124  L 9.687499995117188 12.687499995117188  L 4.999999995117188 10.249999995117188  L 4.999999995117188 4.750000004882812  L 9.687499995117188 2.3125000048828124  Z M 12.062500004882812 4.187500004882812  C 12.1875 4.312500000000001  12.312500009765627 4.375000004882812  12.49999999511719 4.375000004882812  C 12.687499995117188 4.375000004882812  12.812499990234375 4.312500000000001  12.9375 4.187500004882812  L 14.25 2.875000004882813  C 14.500000004882812 2.6250000000000004  14.500000004882812 2.2500000000000004  14.25 1.9999999951171878  C 13.999999995117186 1.7499999902343755  13.62499999511719 1.7499999902343755  13.375000004882814 1.9999999951171878  L 12.062500004882812 3.312499995117188  C 11.8125 3.5625  11.8125 3.9375  12.062500004882812 4.187500004882812  Z M 14.25 12.124999995117186  L 12.9375 10.812499995117188  C 12.687499995117188 10.562499990234373  12.31249999511719 10.562499990234373  12.062500004882812 10.812499995117188  C 11.812500014648437 11.0625  11.8125 11.4375  12.062500004882812 11.687500004882812  L 13.375000004882814 13.000000004882812  C 13.5 13.125  13.6875 13.187500004882814  13.81249999511719 13.187500004882814  C 13.937499990234375 13.187500004882814  14.124999990234377 13.125  14.25 13.000000004882812  C 14.500000004882812 12.75  14.500000004882812 12.375  14.25 12.124999995117186  Z M 15 7.499999999999998  C 15 7.125  14.749999995117186 6.874999995117187  14.37499999511719 6.874999995117187  L 12.49999999511719 6.874999995117187  C 12.124999995117186 6.874999995117187  11.874999990234375 7.125  11.875000004882814 7.5  C 11.875000019531251 7.875  12.125000009765627 8.125000004882812  12.49999999511719 8.125000004882812  L 14.37499999511719 8.125000004882812  C 14.74999999511719 8.125000004882812  15 7.874999999999998  15 7.499999999999998  Z " fill-rule="nonzero" fill="#5f5f5f" stroke="none" transform="matrix(1 0 0 1 23 139 )" />
  </g>
</svg>