<?xml version="1.0" encoding="utf-8"?>
<svg version="1.1" xmlns:xlink="http://www.w3.org/1999/xlink" width="26px" height="26px" xmlns="http://www.w3.org/2000/svg">
  <g transform="matrix(1 0 0 1 -391 -31 )">
    <path d="M 17.362862010221463 22.416294642857142  C 17.45144804088586 22.50334821428571  17.49574105621806 22.614583333333336  17.49574105621806 22.75  L 17.49574105621806 25.535714285714285  C 17.49574105621806 25.671130952380953  17.45144804088586 25.782366071428573  17.362862010221463 25.869419642857142  C 17.274275979557068 25.956473214285715  17.161082718152567 26  17.02328222600795 26  L 13.243611584327086 26  C 13.105811092182472 26  12.992617830777967 25.956473214285715  12.904031800113572 25.869419642857142  C 12.815445769449177 25.782366071428573  12.77115275411698 25.671130952380953  12.77115275411698 25.535714285714285  L 12.77115275411698 22.75  C 12.77115275411698 22.614583333333336  12.815445769449177 22.50334821428571  12.904031800113572 22.416294642857142  C 12.992617830777967 22.329241071428573  13.105811092182472 22.28571428571429  13.243611584327086 22.28571428571429  L 17.02328222600795 22.28571428571429  C 17.161082718152567 22.28571428571429  17.274275979557068 22.329241071428573  17.362862010221463 22.416294642857142  Z M 10.275979557069846 20.55915178571429  C 10.36456558773424 20.646205357142858  10.408858603066438 20.757440476190478  10.408858603066438 20.892857142857142  C 10.408858603066438 21.008928571428573  10.359644141586221 21.125  10.26121521862578 21.241071428571427  L 5.551391254968768 25.869419642857142  C 5.45296233200833 25.956473214285715  5.339769070603824 26  5.2118114707552525 26  C 5.093696763202726 26  4.980503501798221 25.956473214285715  4.872231686541737 25.869419642857142  L 0.14764338444065872 21.2265625  C 0 21.071800595238095  -0.03445012303615368 20.902529761904763  0.044293015332197615 20.71875  C 0.12303615370054898 20.52529761904762  0.2706795381412077 20.428571428571427  0.4872231686541738 20.428571428571427  L 3.321976149914821 20.428571428571427  L 3.321976149914821 0.4642857142857155  C 3.321976149914821 0.328869047619045  3.3662691652470187 0.21763392857142816  3.4548551959114135 0.13058035714285632  C 3.5434412265758093 0.04352678571428448  3.6566344879803148 0  3.794434980124929 0  L 6.6291879613855755 0  C 6.766988453530192 0  6.880181714934696 0.04352678571428448  6.9687677455990915 0.13058035714285632  C 7.057353776263486 0.21763392857142816  7.101646791595684 0.328869047619045  7.101646791595684 0.4642857142857155  L 7.101646791595684 20.428571428571427  L 9.936399772856332 20.428571428571427  C 10.074200265000947 20.428571428571427  10.187393526405453 20.47209821428571  10.275979557069846 20.55915178571429  Z M 20.197614991482112 14.987723214285712  C 20.28620102214651 15.074776785714288  20.330494037478708 15.186011904761905  20.330494037478708 15.321428571428571  L 20.330494037478708 18.107142857142858  C 20.330494037478708 18.242559523809522  20.28620102214651 18.353794642857142  20.197614991482112 18.44084821428571  C 20.109028960817717 18.52790178571429  19.995835699413213 18.571428571428573  19.8580352072686 18.571428571428573  L 13.243611584327086 18.571428571428573  C 13.105811092182472 18.571428571428573  12.992617830777967 18.52790178571429  12.904031800113572 18.44084821428571  C 12.815445769449177 18.353794642857142  12.77115275411698 18.242559523809522  12.77115275411698 18.107142857142858  L 12.77115275411698 15.321428571428571  C 12.77115275411698 15.186011904761905  12.815445769449177 15.074776785714288  12.904031800113572 14.987723214285712  C 12.992617830777967 14.900669642857144  13.105811092182472 14.857142857142856  13.243611584327086 14.857142857142856  L 19.8580352072686 14.857142857142856  C 19.995835699413213 14.857142857142856  20.109028960817717 14.900669642857144  20.197614991482112 14.987723214285712  Z M 23.03236797274276 7.559151785714285  C 23.120954003407157 7.646205357142856  23.165247018739354 7.757440476190473  23.165247018739354 7.892857142857144  L 23.165247018739354 10.678571428571429  C 23.165247018739354 10.813988095238093  23.120954003407157 10.925223214285715  23.03236797274276 11.012276785714285  C 22.943781942078367 11.099330357142856  22.830588680673863 11.142857142857144  22.692788188529246 11.142857142857144  L 13.243611584327086 11.142857142857144  C 13.105811092182472 11.142857142857144  12.992617830777967 11.099330357142856  12.904031800113572 11.012276785714285  C 12.815445769449177 10.925223214285715  12.77115275411698 10.813988095238093  12.77115275411698 10.678571428571429  L 12.77115275411698 7.892857142857144  C 12.77115275411698 7.757440476190473  12.815445769449177 7.646205357142856  12.904031800113572 7.559151785714285  C 12.992617830777967 7.472098214285715  13.105811092182472 7.428571428571428  13.243611584327086 7.428571428571428  L 22.692788188529246 7.428571428571428  C 22.830588680673863 7.428571428571428  22.943781942078367 7.472098214285715  23.03236797274276 7.559151785714285  Z M 25.867120954003408 0.13058035714285632  C 25.955706984667803 0.21763392857142816  26 0.328869047619045  26 0.4642857142857155  L 26 3.25  C 26 3.3854166666666647  25.955706984667803 3.4966517857142847  25.867120954003408 3.5837053571428563  C 25.778534923339013 3.670758928571428  25.665341661934512 3.7142857142857153  25.52754116978989 4  L 13.243611584327086 4  C 13.105811092182472 3.7142857142857153  12.992617830777967 3.670758928571428  12.904031800113572 3.5837053571428563  C 12.815445769449177 3.4966517857142847  12.77115275411698 3.3854166666666647  12.77115275411698 3.25  L 12.77115275411698 0.4642857142857155  C 12.77115275411698 0.328869047619045  12.815445769449177 0.21763392857142816  12.904031800113572 0.13058035714285632  C 12.992617830777967 0.04352678571428448  13.105811092182472 0  13.243611584327086 0  L 25.52754116978989 0  C 25.665341661934512 0  25.778534923339013 0.04352678571428448  25.867120954003408 0.13058035714285632  Z " fill-rule="nonzero" fill="#7f7f7f" stroke="none" transform="matrix(1 0 0 1 391 31 )" />
  </g>
</svg>