<?xml version="1.0" encoding="utf-8"?>
<svg version="1.1" xmlns:xlink="http://www.w3.org/1999/xlink" width="10px" height="10px" xmlns="http://www.w3.org/2000/svg">
  <g transform="matrix(1 0 0 1 -299 -135 )">
    <path d="M 9.775390625 5.895182291666668  C 9.81662326388889 5.936414930555555  9.837239583333334 5.985243055555555  9.837239583333334 6.041666666666668  C 9.837239583333334 6.063368055555555  9.835069444444445 6.078559027777777  9.830729166666666 6.087239583333332  C 9.55295138888889 7.250434027777777  8.971354166666666 8.193359375  8.0859375 8.916015625  C 7.200520833333334 9.638671875  6.1631944444444455 10  4.973958333333333 10  C 4.340277777777779 10  3.727213541666667 9.88064236111111  3.134765625 9.641927083333334  C 2.542317708333333 9.403211805555555  2.0138888888888893 9.0625  1.5494791666666665 8.619791666666666  L 0.7096354166666667 9.459635416666666  C 0.627170138888889 9.542100694444445  0.529513888888889 9.583333333333334  0.41666666666666663 9.583333333333334  C 0.3038194444444445 9.583333333333334  0.20616319444444445 9.542100694444445  0.12369791666666666 9.459635416666666  C 0.04123263888888889 9.37717013888889  0 9.27951388888889  0 9.166666666666666  L 0 6.25  C 0 6.137152777777777  0.04123263888888889 6.039496527777777  0.12369791666666666 5.95703125  C 0.20616319444444445 5.874565972222221  0.3038194444444445 5.833333333333332  0.41666666666666663 5.833333333333332  L 3.333333333333333 5.833333333333332  C 3.446180555555556 5.833333333333332  3.543836805555556 5.874565972222221  3.626302083333333 5.95703125  C 3.7087673611111116 6.039496527777777  3.75 6.137152777777777  3.75 6.25  C 3.75 6.362847222222221  3.7087673611111116 6.460503472222221  3.626302083333333 6.54296875  L 2.734375 7.434895833333332  C 3.0425347222222228 7.721354166666666  3.391927083333333 7.942708333333334  3.782552083333333 8.098958333333334  C 4.173177083333333 8.255208333333334  4.578993055555555 8.333333333333334  5 8.333333333333334  C 5.581597222222222 8.333333333333334  6.1241319444444455 8.192274305555555  6.627604166666666 7.91015625  C 7.131076388888889 7.628038194444443  7.534722222222223 7.239583333333332  7.838541666666666 6.744791666666668  C 7.886284722222223 6.671006944444445  8.001302083333334 6.417100694444445  8.18359375 5.983072916666668  C 8.218315972222223 5.883246527777777  8.28342013888889 5.833333333333332  8.37890625 5.833333333333332  L 9.62890625 5.833333333333332  C 9.68532986111111 5.833333333333332  9.73415798611111 5.853949652777777  9.775390625 5.895182291666668  Z M 9.876302083333334 0.5403645833333337  C 9.95876736111111 0.6228298611111105  10 0.7204861111111105  10 0.8333333333333337  L 10 3.75  C 10 3.8628472222222223  9.95876736111111 3.9605034722222223  9.876302083333334 4.04296875  C 9.793836805555557 4.125434027777778  9.696180555555557 4.166666666666666  9.583333333333334 4.166666666666666  L 6.666666666666666 4.166666666666666  C 6.5538194444444455 4.166666666666666  6.4561631944444455 4.125434027777778  6.373697916666666 4.04296875  C 6.291232638888889 3.9605034722222223  6.250000000000001 3.8628472222222223  6.25 3.75  C 6.250000000000001 3.637152777777777  6.291232638888889 3.539496527777777  6.373697916666666 3.45703125  L 7.272135416666666 2.55859375  C 6.629774305555557 1.963975694444443  5.872395833333334 1.6666666666666663  5 1.6666666666666663  C 4.418402777777779 1.6666666666666663  3.875868055555556 1.807725694444443  3.372395833333333 2.08984375  C 2.8689236111111116 2.3719618055555545  2.465277777777778 2.760416666666666  2.1614583333333335 3.255208333333334  C 2.1137152777777777 3.3289930555555545  1.9986979166666665 3.5828993055555545  1.81640625 4.016927083333334  C 1.781684027777778 4.116753472222222  1.7165798611111114 4.166666666666666  1.62109375 4.166666666666666  L 0.32552083333333337 4.166666666666666  C 0.2690972222222222 4.166666666666666  0.22026909722222224 4.146050347222222  0.17903645833333331 4.104817708333334  C 0.13780381944444445 4.063585069444445  0.1171875 4.014756944444445  0.1171875 3.958333333333334  L 0.1171875 3.912760416666666  C 0.3993055555555556 2.7495659722222223  0.9852430555555557 1.806640625  1.875 1.083984375  C 2.7647569444444446 0.361328125  3.8064236111111116 0  5 0  C 5.633680555555555 0  6.25 0.1204427083333337  6.848958333333334 0.361328125  C 7.447916666666666 0.6022135416666663  7.9796006944444455 0.9418402777777768  8.444010416666666 1.3802083333333337  L 9.290364583333334 0.5403645833333337  C 9.37282986111111 0.4578993055555547  9.47048611111111 0.4166666666666663  9.583333333333334 0.4166666666666663  C 9.696180555555557 0.4166666666666663  9.793836805555557 0.4578993055555547  9.876302083333334 0.5403645833333337  Z " fill-rule="nonzero" fill="#02a7f0" stroke="none" transform="matrix(1 0 0 1 299 135 )" />
  </g>
</svg>