<?xml version="1.0" encoding="utf-8"?>
<svg version="1.1" xmlns:xlink="http://www.w3.org/1999/xlink" width="11px" height="19px" xmlns="http://www.w3.org/2000/svg">
  <g transform="matrix(1 0 0 1 -1332 -600 )">
    <path d="M 10.81857638888889 7.524639423076923  C 10.939525462962964 7.669270833333332  11 7.84054487179487  11 8.03846153846154  L 11 9.5  C 11 11.182291666666666  10.530526620370372 12.645733173076923  9.59157986111111 13.89032451923077  C 8.652633101851853 15.134915865384613  7.492476851851852 15.848557692307693  6.111111111111112 16.03125  L 6.111111111111112 17.53846153846154  L 8.555555555555555 17.53846153846154  C 8.721064814814815 17.53846153846154  8.864293981481481 17.610777243589745  8.985243055555555 17.755408653846153  C 9.106192129629632 17.900040064102566  9.166666666666668 18.071314102564102  9.166666666666668 18.26923076923077  C 9.166666666666668 18.467147435897434  9.106192129629632 18.638421474358974  8.985243055555555 18.783052884615383  C 8.864293981481481 18.927684294871796  8.721064814814815 19  8.555555555555555 19  L 2.444444444444444 19  C 2.278935185185185 19  2.1357060185185186 18.927684294871796  2.014756944444444 18.783052884615383  C 1.8938078703703702 18.638421474358974  1.8333333333333333 18.467147435897434  1.8333333333333333 18.26923076923077  C 1.8333333333333333 18.071314102564102  1.8938078703703702 17.900040064102566  2.014756944444444 17.755408653846153  C 2.1357060185185186 17.610777243589745  2.278935185185185 17.53846153846154  2.444444444444444 17.53846153846154  L 4.888888888888888 17.53846153846154  L 4.888888888888888 16.03125  C 3.5075231481481484 15.848557692307693  2.3473668981481484 15.134915865384613  1.4084201388888888 13.89032451923077  C 0.4694733796296296 12.645733173076923  0 11.182291666666666  0 9.5  L 0 8.03846153846154  C 0 7.84054487179487  0.060474537037037035 7.669270833333332  0.1814236111111111 7.524639423076923  C 0.3023726851851852 7.380008012820513  0.4456018518518519 7.307692307692307  0.611111111111111 7.307692307692307  C 0.7766203703703705 7.307692307692307  0.9198495370370371 7.380008012820513  1.0407986111111112 7.524639423076923  C 1.1617476851851851 7.669270833333332  1.222222222222222 7.84054487179487  1.222222222222222 8.03846153846154  L 1.222222222222222 9.5  C 1.222222222222222 10.908253205128203  1.640769675925926 12.112880608974358  2.477864583333333 13.11388221153846  C 3.314959490740741 14.114883814102562  4.322337962962963 14.615384615384613  5.5 14.615384615384613  C 6.677662037037037 14.615384615384613  7.6850405092592595 14.114883814102562  8.522135416666668 13.11388221153846  C 9.359230324074074 12.112880608974358  9.777777777777777 10.908253205128203  9.777777777777777 9.5  L 9.777777777777777 8.03846153846154  C 9.777777777777777 7.84054487179487  9.838252314814817 7.669270833333332  9.95920138888889 7.524639423076923  C 10.080150462962964 7.380008012820513  10.223379629629632 7.307692307692307  10.38888888888889 7.307692307692307  C 10.55439814814815 7.307692307692307  10.697627314814817 7.380008012820513  10.81857638888889 7.524639423076923  Z M 7.657986111111112 1.073317307692307  C 8.25636574074074 1.7888621794871784  8.555555555555555 2.649038461538461  8.555555555555555 3.6538461538461533  L 8.555555555555555 9.5  C 8.555555555555555 10.504807692307693  8.25636574074074 11.364983974358973  7.657986111111112 12.080528846153847  C 7.059606481481482 12.796073717948717  6.340277777777777 13.153846153846153  5.5 13.153846153846153  C 4.659722222222223 13.153846153846153  3.9403935185185195 12.796073717948717  3.3420138888888884 12.080528846153847  C 2.7436342592592595 11.364983974358973  2.444444444444444 10.504807692307693  2.444444444444444 9.5  L 2.444444444444444 3.6538461538461533  C 2.444444444444444 2.649038461538461  2.7436342592592595 1.7888621794871784  3.3420138888888884 1.073317307692307  C 3.9403935185185195 0.3577724358974378  4.659722222222223 0  5.5 0  C 6.340277777777777 0  7.059606481481482 0.3577724358974378  7.657986111111112 1.073317307692307  Z " fill-rule="nonzero" fill="#ffffff" stroke="none" transform="matrix(1 0 0 1 1332 600 )" />
  </g>
</svg>