<?xml version="1.0" encoding="utf-8"?>
<svg version="1.1" xmlns:xlink="http://www.w3.org/1999/xlink" width="19px" height="19px" xmlns="http://www.w3.org/2000/svg">
  <g transform="matrix(1 0 0 1 -14 -278 )">
    <path d="M 23.5 279  C 28.259999999999998 279  32 282.74  32 287.5  C 32 292.26  28.259999999999998 296  23.5 296  C 18.74 296  15 292.26  15 287.5  C 15 282.74  18.74 279  23.5 279  Z " fill-rule="nonzero" fill="#ffffff" stroke="none" />
    <path d="M 23.5 279  C 28.259999999999998 279  32 282.74  32 287.5  C 32 292.26  28.259999999999998 296  23.5 296  C 18.74 296  15 292.26  15 287.5  C 15 282.74  18.74 279  23.5 279  Z " stroke-width="2" stroke="#02a7f0" fill="none" />
  </g>
</svg>