<?xml version="1.0" encoding="utf-8"?>
<svg version="1.1" xmlns:xlink="http://www.w3.org/1999/xlink" width="103px" height="103px" xmlns="http://www.w3.org/2000/svg">
  <g transform="matrix(1 0 0 1 -1288 -251 )">
    <path d="M 1339.5 255.5  C 1365.82 255.5  1386.5 276.18  1386.5 302.5  C 1386.5 328.82  1365.82 349.5  1339.5 349.5  C 1313.18 349.5  1292.5 328.82  1292.5 302.5  C 1292.5 276.18  1313.18 255.5  1339.5 255.5  Z " fill-rule="nonzero" fill="#ffffff" stroke="none" />
    <path d="M 1339.5 253.5  C 1366.94 253.5  1388.5 275.06  1388.5 302.5  C 1388.5 329.94  1366.94 351.5  1339.5 351.5  C 1312.06 351.5  1290.5 329.94  1290.5 302.5  C 1290.5 275.06  1312.06 253.5  1339.5 253.5  Z " stroke-width="5" stroke="#000000" fill="none" stroke-opacity="0.0392156862745098" />
  </g>
</svg>