<?xml version="1.0" encoding="utf-8"?>
<svg version="1.1" xmlns:xlink="http://www.w3.org/1999/xlink" width="56px" height="33px" xmlns="http://www.w3.org/2000/svg">
  <g transform="matrix(1 0 0 1 -728 -528 )">
    <path d="M 0 0.5714285714285714  L 0 31.5  L 50.22222222222226 31.5  C 53.302222222222234 31.428571428571427  54.50000000000004 29.805714285714267  54.5 26.285714285714285  L 54.5 5.714285714285714  C 54.50000000000004 2.1942857142857326  53.302222222222234 0.5714285714285714  50.22222222222226 0.5714285714285714  L 0 0.5714285714285714  Z " fill-rule="nonzero" fill="#ebebeb" stroke="none" transform="matrix(1 0 0 1 728 528 )" />
    <path d="M 0 31.5  L 50.22222222222226 31.5  C 53.302222222222234 31.428571428571427  54.50000000000004 29.805714285714267  54.5 26.285714285714285  L 54.5 5.714285714285714  C 54.50000000000004 2.1942857142857326  53.302222222222234 0.5714285714285714  50.22222222222226 0.5714285714285714  L 0 0.5714285714285714  " stroke-width="1" stroke="#d9d9d9" fill="none" transform="matrix(1 0 0 1 728 528 )" />
  </g>
</svg>