<?xml version="1.0" encoding="utf-8"?>
<svg version="1.1" xmlns:xlink="http://www.w3.org/1999/xlink" width="103px" height="103px" xmlns="http://www.w3.org/2000/svg">
  <g transform="matrix(1 0 0 1 -1283 -194 )">
    <path d="M 1334.5 198.5  C 1360.82 198.5  1381.5 219.18  1381.5 245.5  C 1381.5 271.82  1360.82 292.5  1334.5 292.5  C 1308.18 292.5  1287.5 271.82  1287.5 245.5  C 1287.5 219.18  1308.18 198.5  1334.5 198.5  Z " fill-rule="nonzero" fill="#ffffff" stroke="none" />
    <path d="M 1334.5 196.5  C 1361.94 196.5  1383.5 218.06  1383.5 245.5  C 1383.5 272.94  1361.94 294.5  1334.5 294.5  C 1307.06 294.5  1285.5 272.94  1285.5 245.5  C 1285.5 218.06  1307.06 196.5  1334.5 196.5  Z " stroke-width="5" stroke="#000000" fill="none" stroke-opacity="0.0392156862745098" />
  </g>
</svg>