<?xml version="1.0" encoding="utf-8"?>
<svg version="1.1" xmlns:xlink="http://www.w3.org/1999/xlink" width="89px" height="89px" xmlns="http://www.w3.org/2000/svg">
  <g transform="matrix(1 0 0 1 -748 -916 )">
    <path d="M 792.5 920.5  C 814.9 920.5  832.5 938.1  832.5 960.5  C 832.5 982.9  814.9 1000.5  792.5 1000.5  C 770.1 1000.5  752.5 982.9  752.5 960.5  C 752.5 938.1  770.1 920.5  792.5 920.5  Z " fill-rule="nonzero" fill="#ffffff" stroke="none" />
    <path d="M 792.5 918.5  C 816.02 918.5  834.5 936.98  834.5 960.5  C 834.5 984.02  816.02 1002.5  792.5 1002.5  C 768.98 1002.5  750.5 984.02  750.5 960.5  C 750.5 936.98  768.98 918.5  792.5 918.5  Z " stroke-width="5" stroke="#000000" fill="none" stroke-opacity="0.0392156862745098" />
  </g>
</svg>