<?xml version="1.0" encoding="utf-8"?>
<svg version="1.1" xmlns:xlink="http://www.w3.org/1999/xlink" width="32px" height="32px" xmlns="http://www.w3.org/2000/svg">
  <g transform="matrix(1 0 0 1 -1346 -1210 )">
    <path d="M 1362 1210.5  C 1370.68 1210.5  1377.5 1217.32  1377.5 1226  C 1377.5 1234.68  1370.68 1241.5  1362 1241.5  C 1353.32 1241.5  1346.5 1234.68  1346.5 1226  C 1346.5 1217.32  1353.32 1210.5  1362 1210.5  Z " fill-rule="nonzero" fill="#ffffff" stroke="none" fill-opacity="0" />
    <path d="M 1362 1210.5  C 1370.68 1210.5  1377.5 1217.32  1377.5 1226  C 1377.5 1234.68  1370.68 1241.5  1362 1241.5  C 1353.32 1241.5  1346.5 1234.68  1346.5 1226  C 1346.5 1217.32  1353.32 1210.5  1362 1210.5  Z " stroke-width="1" stroke="#000000" fill="none" stroke-opacity="0.14901960784313725" />
  </g>
</svg>