<?xml version="1.0" encoding="utf-8"?>
<svg version="1.1" xmlns:xlink="http://www.w3.org/1999/xlink" width="440px" height="32px" xmlns="http://www.w3.org/2000/svg">
  <g transform="matrix(1 0 0 1 -815 -624 )">
    <path d="M 816 628  A 3 3 0 0 1 819 625 L 1251 625  A 3 3 0 0 1 1254 628 L 1254 652  A 3 3 0 0 1 1251 655 L 819 655  A 3 3 0 0 1 816 652 L 816 628  Z " fill-rule="nonzero" fill="#ffffff" stroke="none" />
    <path d="M 815.5 628  A 3.5 3.5 0 0 1 819 624.5 L 1251 624.5  A 3.5 3.5 0 0 1 1254.5 628 L 1254.5 652  A 3.5 3.5 0 0 1 1251 655.5 L 819 655.5  A 3.5 3.5 0 0 1 815.5 652 L 815.5 628  Z " stroke-width="1" stroke-dasharray="9,4" stroke="#d9d9d9" fill="none" stroke-dashoffset="0.5" />
  </g>
</svg>