<?xml version="1.0" encoding="utf-8"?>
<svg version="1.1" xmlns:xlink="http://www.w3.org/1999/xlink" width="489px" height="32px" xmlns="http://www.w3.org/2000/svg">
  <g transform="matrix(1 0 0 1 -632 -434 )">
    <path d="M 633 438  A 3 3 0 0 1 636 435 L 1117 435  A 3 3 0 0 1 1120 438 L 1120 462  A 3 3 0 0 1 1117 465 L 636 465  A 3 3 0 0 1 633 462 L 633 438  Z " fill-rule="nonzero" fill="#ffffff" stroke="none" />
    <path d="M 632.5 438  A 3.5 3.5 0 0 1 636 434.5 L 1117 434.5  A 3.5 3.5 0 0 1 1120.5 438 L 1120.5 462  A 3.5 3.5 0 0 1 1117 465.5 L 636 465.5  A 3.5 3.5 0 0 1 632.5 462 L 632.5 438  Z " stroke-width="1" stroke-dasharray="9,4" stroke="#d9d9d9" fill="none" stroke-dashoffset="0.5" />
  </g>
</svg>