<?xml version="1.0" encoding="utf-8"?>
<svg version="1.1" xmlns:xlink="http://www.w3.org/1999/xlink" width="1222px" height="1081px" xmlns="http://www.w3.org/2000/svg">
  <g transform="matrix(1 0 0 1 -701 -1 )">
    <path d="M 1221.5 0  L 0.5 0  L 0.5 1074.8693586698337  C 0 1077.7425178147269  0.9525531914896952 1080  2.164893617021029 1080.5  L 1218.8351063829787 1080.5  C 1220.047446808511 1080  1221 1077.7425178147269  1221.5 1074.8693586698337  L 1221.5 0  Z " fill-rule="nonzero" fill="#ffffff" stroke="none" transform="matrix(1 0 0 1 701 1 )" />
    <path d="M 0.5 0  L 0.5 1074.8693586698337  C 0 1077.7425178147269  0.9525531914896952 1080  2.164893617021029 1080.5  L 1218.8351063829787 1080.5  C 1220.047446808511 1080  1221 1077.7425178147269  1221.5 1074.8693586698337  L 1221.5 0  " stroke-width="1" stroke="#e9e9e9" fill="none" transform="matrix(1 0 0 1 701 1 )" />
  </g>
</svg>