<?xml version="1.0" encoding="utf-8"?>
<svg version="1.1" xmlns:xlink="http://www.w3.org/1999/xlink" width="17px" height="13px" xmlns="http://www.w3.org/2000/svg">
  <g transform="matrix(1 0 0 1 -410 -175 )">
    <path d="M 11.24921875 7.0031960227272725  C 11.30529513888889 6.944720643939394  11.333333333333332 6.875473484848484  11.333333333333332 6.795454545454545  C 11.333333333333332 6.709280303030303  11.306770833333335 6.638494318181819  11.253645833333334 6.58309659090909  L 8.136979166666666 3.3330965909090904  C 8.083854166666667 3.277698863636363  8.015972222222222 3.25  7.933333333333334 3.25  C 7.850694444444445 3.25  7.782812500000001 3.277698863636363  7.729687500000001 3.3330965909090904  L 4.621874999999999 6.573863636363636  C 4.562847222222223 6.6477272727272725  4.533333333333333 6.72159090909091  4.533333333333333 6.795454545454545  C 4.533333333333333 6.881628787878787  4.559895833333334 6.9524147727272725  4.613020833333334 7.0078125  C 4.666145833333333 7.0632102272727275  4.734027777777779 7.09090909090909  4.816666666666666 7.09090909090909  L 6.800000000000001 7.09090909090909  L 6.800000000000001 10.34090909090909  C 6.800000000000001 10.42092803030303  6.828038194444445 10.49017518939394  6.884114583333334 10.548650568181818  C 6.940190972222223 10.607125946969697  7.006597222222223 10.636363636363635  7.083333333333334 10.636363636363635  L 8.783333333333335 10.636363636363635  C 8.860069444444447 10.636363636363635  8.926475694444447 10.607125946969697  8.982552083333335 10.548650568181818  C 9.038628472222223 10.49017518939394  9.066666666666666 10.42092803030303  9.066666666666666 10.34090909090909  L 9.066666666666666 7.09090909090909  L 11.05 7.09090909090909  C 11.126736111111112 7.09090909090909  11.193142361111112 7.061671401515151  11.24921875 7.0031960227272725  Z M 16.260677083333334 7.252485795454545  C 16.75355902777778 7.895714962121213  17.000000000000004 8.629734848484848  17 9.454545454545455  C 17.000000000000004 10.433238636363635  16.667968750000004 11.268821022727273  16.00390625 11.961292613636365  C 15.339843750000002 12.653764204545455  14.538541666666669 13  13.600000000000001 13  L 3.966666666666667 13  C 2.8746527777777775 13  1.9405381944444446 12.595288825757576  1.1643229166666669 11.785866477272727  C 0.3881076388888889 10.976444128787877  0 10.002367424242426  0 8.863636363636365  C 0 8.063446969696969  0.20659722222222224 7.324810606060606  0.6197916666666667 6.6477272727272725  C 1.0329861111111112 5.970643939393938  1.5878472222222222 5.462831439393938  2.284375 5.1242897727272725  C 2.272569444444444 4.9396306818181825  2.2666666666666666 4.807291666666666  2.2666666666666666 4.7272727272727275  C 2.2666666666666666 3.422348484848484  2.7093749999999996 2.308238636363637  3.5947916666666666 1.384943181818182  C 4.480208333333334 0.4616477272727274  5.5486111111111125 0  6.800000000000001 0  C 7.720833333333334 0  8.563454861111113 0.2677556818181822  9.327864583333334 0.8032670454545452  C 10.092274305555556 1.3387784090909096  10.64861111111111 2.0497159090909096  10.996875 2.936079545454545  C 11.415972222222223 2.5544507575757565  11.905902777777778 2.363636363636363  12.466666666666665 2.363636363636363  C 13.092361111111112 2.363636363636363  13.626562499999999 2.5944602272727275  14.069270833333334 3.056107954545455  C 14.511979166666666 3.517755681818182  14.733333333333334 4.074810606060605  14.733333333333334 4.7272727272727275  C 14.733333333333334 5.195075757575757  14.612326388888889 5.619791666666666  14.3703125 6.001420454545455  C 15.137673611111113 6.192234848484849  15.76779513888889 6.609256628787877  16.260677083333334 7.252485795454545  Z " fill-rule="nonzero" fill="#ffffff" stroke="none" transform="matrix(1 0 0 1 410 175 )" />
  </g>
</svg>