<?xml version="1.0" encoding="utf-8"?>
<svg version="1.1" xmlns:xlink="http://www.w3.org/1999/xlink" width="20px" height="20px" xmlns="http://www.w3.org/2000/svg">
  <g transform="matrix(1 0 0 1 -1340 -546 )">
    <path d="M 9.002403846153847 1.715893108298172  C 9.154647435897434 1.894045944678855  9.230769230769232 2.1050164088138756  9.230769230769232 2.3488045007032343  L 9.230769230769232 17.651195499296765  C 9.230769230769232 17.894983591186122  9.154647435897434 18.105954055321142  9.002403846153847 18.28410689170183  C 8.850160256410257 18.462259728082515  8.669871794871796 18.551336146272853  8.461538461538462 18.551336146272853  C 8.25320512820513 18.551336146272853  8.072916666666668 18.462259728082515  7.920673076923077 18.28410689170183  L 3.918269230769231 13.60056258790436  L 0.7692307692307693 13.60056258790436  C 0.560897435897436 13.60056258790436  0.3806089743589744 13.511486169714019  0.2283653846153846 13.333333333333336  C 0.07612179487179487 13.155180496952648  0 12.944210032817626  0 12.70042194092827  L 0 7.299578059071729  C 0 7.0557899671823705  0.07612179487179487 6.844819503047348  0.2283653846153846 6.666666666666668  C 0.3806089743589744 6.48851383028598  0.560897435897436 6.399437412095641  0.7692307692307693 6.399437412095641  L 3.918269230769231 6.399437412095641  L 7.920673076923077 1.715893108298172  C 8.072916666666668 1.537740271917487  8.25320512820513 1.4486638537271457  8.461538461538462 1.4486638537271457  C 8.669871794871796 1.4486638537271457  8.850160256410257 1.537740271917487  9.002403846153847 1.715893108298172  Z M 13.335336538461537 8.0028129395218  C 13.675881410256412 8.621659634317862  13.846153846153847 9.28738865447726  13.846153846153847 10  C 13.846153846153847 10.712611345522738  13.675881410256412 11.375996249413971  13.335336538461537 11.9901547116737  C 12.994791666666668 12.604313173933424  12.544070512820513 13.042662916080637  11.983173076923077 13.30520393811533  C 11.903044871794874 13.352086263478666  11.802884615384617 13.375527426160335  11.682692307692308 13.375527426160335  C 11.474358974358976 13.375527426160335  11.294070512820513 13.28879512423816  11.141826923076923 13.115330520393812  C 10.989583333333336 12.941865916549457  10.913461538461537 12.728551336146271  10.913461538461537 12.475386779184248  C 10.913461538461537 12.278481012658226  10.961538461538463 12.112048757618377  11.057692307692308 11.976090014064697  C 11.153846153846153 11.840131270511016  11.270032051282053 11.722925457102672  11.40625 11.624472573839665  C 11.542467948717952 11.526019690576652  11.678685897435898 11.418190342240973  11.814903846153847 11.300984528832632  C 11.951121794871796 11.183778715424284  12.067307692307692 11.015002344116267  12.163461538461537 10.79465541490858  C 12.259615384615385 10.57430848570089  12.307692307692308 10.309423347398031  12.307692307692308 10  C 12.307692307692308 9.690576652601969  12.259615384615385 9.425691514299109  12.163461538461537 9.205344585091419  C 12.067307692307692 8.984997655883731  11.951121794871796 8.816221284575715  11.814903846153847 8.699015471167371  C 11.678685897435898 8.581809657759026  11.542467948717952 8.473980309423348  11.40625 8.375527426160339  C 11.270032051282053 8.277074542897328  11.153846153846153 8.15986872948898  11.057692307692308 8.023909985935303  C 10.961538461538463 7.887951242381622  10.913461538461537 7.721518987341771  10.913461538461537 7.524613220815752  C 10.913461538461537 7.271448663853725  10.989583333333336 7.058134083450538  11.141826923076923 6.884669479606189  C 11.294070512820513 6.7112048757618386  11.474358974358976 6.624472573839661  11.682692307692308 6.624472573839661  C 11.802884615384617 6.624472573839661  11.903044871794874 6.647913736521332  11.983173076923077 6.694796061884669  C 12.544070512820513 6.947960618846696  12.994791666666668 7.383966244725739  13.335336538461537 8.0028129395218  Z M 15.901442307692308 6.026722925457102  C 16.58253205128205 7.240975152367557  16.923076923076923 8.565400843881857  16.923076923076923 10  C 16.923076923076923 11.434599156118143  16.58253205128205 12.75902484763244  15.901442307692308 13.973277074542896  C 15.220352564102566 15.18752930145335  14.318910256410257 16.07126113455227  13.197115384615385 16.624472573839665  C 13.09294871794872 16.671354899203  12.992788461538463 16.69479606188467  12.896634615384615 16.69479606188467  C 12.680288461538463 16.69479606188467  12.495993589743591 16.60571964369433  12.34375 16.427566807313642  C 12.191506410256412 16.249413970932956  12.115384615384617 16.038443506797936  12.115384615384615 15.79465541490858  C 12.115384615384617 15.428973277074542  12.271634615384617 15.152367557430848  12.584134615384615 14.964838255977497  C 13.032852564102566 14.692920768870135  13.337339743589745 14.486638537271448  13.497596153846153 14.345991561181435  C 14.090544871794874 13.839662447257384  14.553285256410257 13.204406938584153  14.885817307692308 12.440225035161742  C 15.21834935897436 11.676043131739334  15.384615384615385 10.862634786685419  15.384615384615385 10  C 15.384615384615385 9.13736521331458  15.21834935897436 8.323956868260664  14.885817307692308 7.559774964838255  C 14.553285256410257 6.795593061415845  14.090544871794874 6.160337552742616  13.497596153846153 5.654008438818565  C 13.337339743589745 5.513361462728552  13.032852564102566 5.307079231129864  12.584134615384615 5.035161744022503  C 12.271634615384617 4.84763244256915  12.115384615384617 4.571026722925458  12.115384615384615 4.205344585091419  C 12.115384615384617 3.961556493202061  12.191506410256412 3.75058602906704  12.34375 3.5724331926863573  C 12.495993589743591 3.3942803563056723  12.676282051282053 3.305203938115331  12.884615384615385 3.305203938115331  C 12.988782051282053 3.305203938115331  13.09294871794872 3.3286451007969964  13.197115384615385 3.3755274261603385  C 14.318910256410257 3.928738865447725  15.220352564102566 4.812470698546645  15.901442307692308 6.026722925457102  Z M 18.473557692307693 4.057665260196906  C 19.491185897435898 5.862634786685419  20 7.843413033286448  20 10  C 20 12.156586966713547  19.491185897435898 14.137365213314578  18.473557692307693 15.942334739803094  C 17.45592948717949 17.747304266291607  16.10176282051282 19.07641819034224  14.411057692307692 19.92967651195499  C 14.306891025641026 19.97655883731833  14.20272435897436 20  14.098557692307692 20  C 13.89022435897436 20  13.709935897435898 19.91092358180966  13.557692307692308 19.732770745428972  C 13.40544871794872 19.55461790904829  13.329326923076923 19.343647444913266  13.329326923076923 19.09985935302391  C 13.329326923076923 18.762306610407876  13.485576923076923 18.485700890764182  13.798076923076923 18.270042194092827  C 13.854166666666668 18.232536333802155  13.944310897435898 18.18330989217065  14.068509615384615 18.122362869198312  C 14.192708333333336 18.061415846225973  14.282852564102566 18.01218940459447  14.338942307692308 17.974683544303797  C 14.707532051282053 17.740271917487107  15.036057692307692 17.50117205813408  15.324519230769232 17.257383966244724  C 16.310096153846153 16.40412564463197  17.079326923076923 15.339896858884199  17.632211538461537 14.064697609001406  C 18.185096153846153 12.789498359118612  18.461538461538463 11.434599156118143  18.461538461538463 10  C 18.461538461538463 8.565400843881857  18.185096153846153 7.210501640881388  17.632211538461537 5.935302390998594  C 17.079326923076923 4.660103141115799  16.310096153846153 3.595874355368025  15.324519230769232 2.742616033755274  C 15.036057692307692 2.4988279418659154  14.707532051282053 2.2597280825128907  14.338942307692308 2.0253164556962022  C 14.282852564102566 1.9878105954055303  14.192708333333336 1.9385841537740256  14.068509615384615 1.8776371308016881  C 13.944310897435898 1.8166901078293463  13.854166666666668 1.7674636661978416  13.798076923076923 1.729957805907174  C 13.485576923076923 1.514299109235815  13.329326923076923 1.2376933895921227  13.329326923076923 0.9001406469760909  C 13.329326923076923 0.65635255508673  13.40544871794872 0.4453820909517092  13.557692307692308 0.2672292545710264  C 13.709935897435898 0.0890764181903414  13.89022435897436 0  14.098557692307692 0  C 14.20272435897436 0  14.306891025641026 0.023441162681667738  14.411057692307692 0.07032348804500765  C 16.10176282051282 0.9235818096577564  17.45592948717949 2.2526957337083897  18.473557692307693 4.057665260196906  Z " fill-rule="nonzero" fill="#ffffff" stroke="none" transform="matrix(1 0 0 1 1340 546 )" />
  </g>
</svg>