<?xml version="1.0" encoding="utf-8"?>
<svg version="1.1" xmlns:xlink="http://www.w3.org/1999/xlink" width="20px" height="15px" xmlns="http://www.w3.org/2000/svg">
  <g transform="matrix(1 0 0 1 -1245 -399 )">
    <path d="M 2.7511160714285716 12.37393465909091  C 2.8218005952380953 12.441406249999998  2.8571428571428568 12.521306818181818  2.8571428571428568 12.613636363636363  L 2.8571428571428568 14.65909090909091  C 2.8571428571428568 14.751420454545455  2.8218005952380953 14.831321022727273  2.7511160714285716 14.898792613636363  C 2.6804315476190474 14.966264204545453  2.5967261904761907 15  2.5 15  L 0.3571428571428571 15  C 0.2604166666666667 15  0.17671130952380953 14.966264204545453  0.10602678571428573 14.898792613636363  C 0.035342261904761904 14.831321022727273  0 14.751420454545455  0 14.65909090909091  L 0 12.613636363636363  C 0 12.521306818181818  0.035342261904761904 12.441406249999998  0.10602678571428573 12.37393465909091  C 0.17671130952380953 12.30646306818182  0.2604166666666667 12.272727272727272  0.3571428571428571 12.272727272727272  L 2.5 12.272727272727272  C 2.5967261904761907 12.272727272727272  2.6804315476190474 12.30646306818182  2.7511160714285716 12.37393465909091  Z M 2.7511160714285716 8.283025568181818  C 2.8218005952380953 8.350497159090908  2.8571428571428568 8.430397727272727  2.8571428571428568 8.522727272727272  L 2.8571428571428568 10.568181818181818  C 2.8571428571428568 10.660511363636362  2.8218005952380953 10.74041193181818  2.7511160714285716 10.807883522727272  C 2.6804315476190474 10.875355113636365  2.5967261904761907 10.90909090909091  2.5 10.90909090909091  L 0.3571428571428571 10.90909090909091  C 0.2604166666666667 10.90909090909091  0.17671130952380953 10.875355113636365  0.10602678571428573 10.807883522727272  C 0.035342261904761904 10.74041193181818  0 10.660511363636362  0 10.568181818181818  L 0 8.522727272727272  C 0 8.430397727272727  0.035342261904761904 8.350497159090908  0.10602678571428573 8.283025568181818  C 0.17671130952380953 8.215553977272727  0.2604166666666667 8.181818181818182  0.3571428571428571 8.181818181818182  L 2.5 8.181818181818182  C 2.5967261904761907 8.181818181818182  2.6804315476190474 8.215553977272727  2.7511160714285716 8.283025568181818  Z M 2.7511160714285716 4.192116477272727  C 2.8218005952380953 4.2595880681818175  2.8571428571428568 4.339488636363635  2.8571428571428568 4.431818181818182  L 2.8571428571428568 6.477272727272727  C 2.8571428571428568 6.569602272727273  2.8218005952380953 6.64950284090909  2.7511160714285716 6.716974431818182  C 2.6804315476190474 6.7844460227272725  2.5967261904761907 6.818181818181818  2.5 6.818181818181818  L 0.3571428571428571 6.818181818181818  C 0.2604166666666667 6.818181818181818  0.17671130952380953 6.7844460227272725  0.10602678571428573 6.716974431818182  C 0.035342261904761904 6.64950284090909  0 6.569602272727273  0 6.477272727272727  L 0 4.431818181818182  C 0 4.339488636363635  0.035342261904761904 4.2595880681818175  0.10602678571428573 4.192116477272727  C 0.17671130952380953 4.124644886363635  0.2604166666666667 4.090909090909091  0.3571428571428571 4.090909090909091  L 2.5 4.090909090909091  C 2.5967261904761907 4.090909090909091  2.6804315476190474 4.124644886363635  2.7511160714285716 4.192116477272727  Z M 19.893973214285715 12.37393465909091  C 19.96465773809524 12.441406249999998  20 12.521306818181818  20 12.613636363636363  L 20 14.65909090909091  C 20 14.751420454545455  19.96465773809524 14.831321022727273  19.893973214285715 14.898792613636363  C 19.823288690476193 14.966264204545453  19.739583333333336 15  19.642857142857142 15  L 4.642857142857143 15  C 4.5461309523809526 15  4.462425595238096 14.966264204545453  4.391741071428571 14.898792613636363  C 4.3210565476190474 14.831321022727273  4.285714285714286 14.751420454545455  4.285714285714286 14.65909090909091  L 4.285714285714286 12.613636363636363  C 4.285714285714286 12.521306818181818  4.3210565476190474 12.441406249999998  4.391741071428571 12.37393465909091  C 4.462425595238096 12.30646306818182  4.5461309523809526 12.272727272727272  4.642857142857143 12  L 19.642857142857142 12  C 19.739583333333336 12.272727272727272  19.823288690476193 12.30646306818182  19.893973214285715 12.37393465909091  Z M 2.7511160714285716 0.10120738636363591  C 2.8218005952380953 0.16867897727272707  2.8571428571428568 0.2485795454545442  2.8571428571428568 0.3409090909090906  L 2.8571428571428568 2.386363636363636  C 2.8571428571428568 2.4786931818181808  2.8218005952380953 2.558593749999998  2.7511160714285716 2.626065340909091  C 2.6804315476190474 2.6935369318181817  2.5967261904761907 2.7272727272727266  2.5 2.7272727272727266  L 0.3571428571428571 2.7272727272727266  C 0.2604166666666667 2.7272727272727266  0.17671130952380953 2.6935369318181817  0.10602678571428573 2.626065340909091  C 0.035342261904761904 2.558593749999998  0 2.4786931818181808  0 2.386363636363636  L 0 0.3409090909090906  C 0 0.2485795454545442  0.035342261904761904 0.16867897727272707  0.10602678571428573 0.10120738636363591  C 0.17671130952380953 0.03373579545454308  0.2604166666666667 0  0.3571428571428571 0  L 2.5 0  C 2.5967261904761907 0  2.6804315476190474 0.03373579545454308  2.7511160714285716 0.10120738636363591  Z M 19.893973214285715 8.283025568181818  C 19.96465773809524 8.350497159090908  20 8.430397727272727  20 8.522727272727272  L 20 10.568181818181818  C 20 10.660511363636362  19.96465773809524 10.74041193181818  19.893973214285715 10.807883522727272  C 19.823288690476193 10.875355113636365  19.739583333333336 10.90909090909091  19.642857142857142 11  L 4.642857142857143 11  C 4.5461309523809526 10.90909090909091  4.462425595238096 10.875355113636365  4.391741071428571 10.807883522727272  C 4.3210565476190474 10.74041193181818  4.285714285714286 10.660511363636362  4.285714285714286 10.568181818181818  L 4.285714285714286 8.522727272727272  C 4.285714285714286 8.430397727272727  4.3210565476190474 8.350497159090908  4.391741071428571 8.283025568181818  C 4.462425595238096 8.215553977272727  4.5461309523809526 8.181818181818182  4.642857142857143 8  L 19.642857142857142 8  C 19.739583333333336 8.181818181818182  19.823288690476193 8.215553977272727  19.893973214285715 8.283025568181818  Z M 19.893973214285715 4.192116477272727  C 19.96465773809524 4.2595880681818175  20 4.339488636363635  20 4.431818181818182  L 20 6.477272727272727  C 20 6.569602272727273  19.96465773809524 6.64950284090909  19.893973214285715 6.716974431818182  C 19.823288690476193 6.7844460227272725  19.739583333333336 6.818181818181818  19.642857142857142 7  L 4.642857142857143 7  C 4.5461309523809526 6.818181818181818  4.462425595238096 6.7844460227272725  4.391741071428571 6.716974431818182  C 4.3210565476190474 6.64950284090909  4.285714285714286 6.569602272727273  4.285714285714286 6.477272727272727  L 4.285714285714286 4.431818181818182  C 4.285714285714286 4.339488636363635  4.3210565476190474 4.2595880681818175  4.391741071428571 4.192116477272727  C 4.462425595238096 4.124644886363635  4.5461309523809526 4.090909090909091  4.642857142857143 4  L 19.642857142857142 4  C 19.739583333333336 4.090909090909091  19.823288690476193 4.124644886363635  19.893973214285715 4.192116477272727  Z M 19.893973214285715 0.10120738636363591  C 19.96465773809524 0.16867897727272707  20 0.2485795454545442  20 0.3409090909090906  L 20 2.386363636363636  C 20 2.4786931818181808  19.96465773809524 2.558593749999998  19.893973214285715 2.626065340909091  C 19.823288690476193 2.6935369318181817  19.739583333333336 2.7272727272727266  19.642857142857142 3  L 4.642857142857143 3  C 4.5461309523809526 2.7272727272727266  4.462425595238096 2.6935369318181817  4.391741071428571 2.626065340909091  C 4.3210565476190474 2.558593749999998  4.285714285714286 2.4786931818181808  4.285714285714286 2.386363636363636  L 4.285714285714286 0.3409090909090906  C 4.285714285714286 0.2485795454545442  4.3210565476190474 0.16867897727272707  4.391741071428571 0.10120738636363591  C 4.462425595238096 0.03373579545454308  4.5461309523809526 0  4.642857142857143 0  L 19.642857142857142 0  C 19.739583333333336 0  19.823288690476193 0.03373579545454308  19.893973214285715 0.10120738636363591  Z " fill-rule="nonzero" fill="#797979" stroke="none" transform="matrix(1 0 0 1 1245 399 )" />
  </g>
</svg>