<?xml version="1.0" encoding="utf-8"?>
<svg version="1.1" xmlns:xlink="http://www.w3.org/1999/xlink" width="107px" height="107px" xmlns="http://www.w3.org/2000/svg">
  <g transform="matrix(1 0 0 1 -1294 -156 )">
    <path d="M 1347.5 160.5  C 1374.94 160.5  1396.5 182.06  1396.5 209.5  C 1396.5 236.94  1374.94 258.5  1347.5 258.5  C 1320.06 258.5  1298.5 236.94  1298.5 209.5  C 1298.5 182.06  1320.06 160.5  1347.5 160.5  Z " fill-rule="nonzero" fill="#ffffff" stroke="none" />
    <path d="M 1347.5 158.5  C 1376.06 158.5  1398.5 180.94  1398.5 209.5  C 1398.5 238.06  1376.06 260.5  1347.5 260.5  C 1318.94 260.5  1296.5 238.06  1296.5 209.5  C 1296.5 180.94  1318.94 158.5  1347.5 158.5  Z " stroke-width="5" stroke="#000000" fill="none" stroke-opacity="0.0392156862745098" />
  </g>
</svg>